<?xml version="1.0" encoding="utf-8"?>
<!-- Generator: Adobe Illustrator 18.0.0, SVG Export Plug-In . SVG Version: 6.00 Build 0)  -->
<!DOCTYPE svg PUBLIC "-//W3C//DTD SVG 1.1//EN" "http://www.w3.org/Graphics/SVG/1.1/DTD/svg11.dtd">
<svg version="1.1" id="Capa_1" xmlns="http://www.w3.org/2000/svg" xmlns:xlink="http://www.w3.org/1999/xlink" x="0px" y="0px"
	 viewBox="0 0 387 51" enable-background="new 0 0 387 51" xml:space="preserve">
<g>
	<rect x="51" y="4" fill="#C01722" width="47.1" height="43.5"/>
	<rect x="100" y="4" fill="#595A5C" width="141.3" height="43.5"/>
	<rect x="243.2" y="4" fill="#9A9B9C" width="141.3" height="43.5"/>
	<g>
		<path fill-rule="evenodd" clip-rule="evenodd" fill="#201F22" d="M38.1,19.9l3.1-2.4l0-0.1c0,0-1.8,1.4-3.2,2.4
			C37.9,19.8,38.1,19.8,38.1,19.9"/>
		<path fill="none" stroke="#201F22" stroke-width="9.000000e-002" stroke-miterlimit="2.613" d="M38.1,19.9l3.1-2.4l0-0.1
			c0,0-1.8,1.4-3.2,2.4C37.9,19.8,38.1,19.8,38.1,19.9z"/>
		<polygon fill-rule="evenodd" clip-rule="evenodd" fill="#201F22" points="41.2,16.9 41.9,16.6 41.9,17.3 41.9,17.3 41.9,17.3
			41.2,17.5 		"/>
		<polygon fill="none" stroke="#201F22" stroke-width="9.000000e-002" stroke-miterlimit="2.613" points="41.2,16.9 41.9,16.6
			41.9,17.3 41.9,17.3 41.9,17.3 41.2,17.5 		"/>
		<path fill-rule="evenodd" clip-rule="evenodd" fill="#FFEB13" d="M41.2,17.5l0.1-0.6l0.6-0.3l0,0.6C41.8,17.3,41.2,17.4,41.2,17.5
			"/>
		<path fill="none" stroke="#201F22" stroke-width="9.000000e-002" stroke-miterlimit="2.613" d="M41.2,17.5l0.1-0.6l0.6-0.3l0,0.6
			C41.8,17.3,41.2,17.4,41.2,17.5z"/>
		<path fill-rule="evenodd" clip-rule="evenodd" fill="#FFEB13" d="M41.2,17.5l0.6-0.9l0,0.6C41.8,17.4,41.3,17.5,41.2,17.5"/>
		<path fill="none" stroke="#201F22" stroke-width="9.000000e-002" stroke-miterlimit="2.613" d="M41.2,17.5l0.6-0.9l0,0.6
			C41.8,17.4,41.3,17.5,41.2,17.5z"/>
		<path fill-rule="evenodd" clip-rule="evenodd" fill="#201F22" d="M41.2,17.3c-0.1,0-0.2,0.1-0.2,0.2c0,0.1,0.1,0.2,0.2,0.2
			c0.1,0,0.2-0.1,0.2-0.2C41.4,17.4,41.3,17.3,41.2,17.3"/>
		<circle fill="none" stroke="#201F22" stroke-width="4.100000e-002" stroke-miterlimit="2.613" cx="41.2" cy="17.5" r="0.2"/>
		<path fill-rule="evenodd" clip-rule="evenodd" fill="#FFEB13" d="M41.2,17.3c-0.1,0-0.1,0.1-0.1,0.1c0,0.1,0.1,0.1,0.1,0.1
			c0.1,0,0.1-0.1,0.1-0.1C41.3,17.4,41.3,17.3,41.2,17.3"/>
		<circle fill="none" stroke="#201F22" stroke-width="4.100000e-002" stroke-miterlimit="2.613" cx="41.2" cy="17.5" r="0.1"/>
		<path fill-rule="evenodd" clip-rule="evenodd" fill="#201F22" d="M35.1,29.7c0.9-0.7,4.4-2.1,4.9-3.2c0.5-1-0.4-2.5-0.1-1.7
			c0.3,0.9-2.9,2.3-3.8,2.7c-0.3,0.2-1.5,0.5-1.5,1c0,0.1,0.1,0.4,0.1,0.5C34.7,29.4,35.1,29.6,35.1,29.7"/>
		<path fill="none" stroke="#201F22" stroke-width="9.000000e-002" stroke-miterlimit="2.613" d="M35.1,29.7
			c0.9-0.7,4.4-2.1,4.9-3.2c0.5-1-0.4-2.5-0.1-1.7c0.3,0.9-2.9,2.3-3.8,2.7c-0.3,0.2-1.5,0.5-1.5,1c0,0.1,0.1,0.4,0.1,0.5
			C34.7,29.4,35.1,29.6,35.1,29.7z"/>
		<path fill-rule="evenodd" clip-rule="evenodd" fill="#FFEB13" d="M34.8,29.5c0.9-0.7,4.5-2.3,5-3.4c0.5-1.1-0.4-2.6-0.1-1.8
			c0.3,1-3,2.5-3.9,2.9c-0.3,0.2-1.5,0.6-1.5,1.1c0,0.1,0.1,0.5,0.1,0.6C34.5,29.3,34.8,29.5,34.8,29.5"/>
		<path fill="none" stroke="#201F22" stroke-width="9.000000e-002" stroke-miterlimit="2.613" d="M34.8,29.5c0.9-0.7,4.5-2.3,5-3.4
			c0.5-1.1-0.4-2.6-0.1-1.8c0.3,1-3,2.5-3.9,2.9c-0.3,0.2-1.5,0.6-1.5,1.1c0,0.1,0.1,0.5,0.1,0.6C34.5,29.3,34.8,29.5,34.8,29.5z"/>
		<path fill-rule="evenodd" clip-rule="evenodd" fill="#FFFFFF" d="M34.9,22c0.3-0.1,0.9-0.7,1.1-0.9c0.6-0.3,2-1.5,2.3-1.2
			c0.6,0.5,0.7,1.4,0.8,2.1c0.1,0.3-0.2,0.3-0.5,0.5c-0.4,0.2-0.6,0.5-1.1,0.5c-1.2,0.2-1.9,1.1-2.5,0.8c-0.3-0.1-0.1-1-0.4-1.2
			C34.1,22.4,34.7,22.3,34.9,22"/>
		<path fill="none" stroke="#201F22" stroke-width="9.000000e-002" stroke-miterlimit="2.613" d="M34.9,22c0.3-0.1,0.9-0.7,1.1-0.9
			c0.6-0.3,2-1.5,2.3-1.2c0.6,0.5,0.7,1.4,0.8,2.1c0.1,0.3-0.2,0.3-0.5,0.5c-0.4,0.2-0.6,0.5-1.1,0.5c-1.2,0.2-1.9,1.1-2.5,0.8
			c-0.3-0.1-0.1-1-0.4-1.2C34.1,22.4,34.7,22.3,34.9,22z"/>
		<path fill-rule="evenodd" clip-rule="evenodd" fill="#201F22" d="M37.6,16.7c-0.7,2.1-0.8,5.8-1.3,8c0,0.1-0.1,0.7-0.2,0.7
			c0,0,0.3-0.4,0.4-0.5c0.5-0.3,1.7-1.2,2.8-0.6c0.1,0,0.2,0.1,0.2,0.2c0.1,0.1,0.1,0.2,0.1,0.2c0.1-0.2,0.1-0.2-0.1-0.4
			c-0.1-0.7-0.3-1.4-0.5-2.1c-0.1-0.3-0.2-0.7-0.2-1C38.5,19.1,38,17.2,37.6,16.7"/>
		<path fill="none" stroke="#201F22" stroke-width="9.000000e-002" stroke-miterlimit="2.613" d="M37.6,16.7c-0.7,2.1-0.8,5.8-1.3,8
			c0,0.1-0.1,0.7-0.2,0.7c0,0,0.3-0.4,0.4-0.5c0.5-0.3,1.7-1.2,2.8-0.6c0.1,0,0.2,0.1,0.2,0.2c0.1,0.1,0.1,0.2,0.1,0.2
			c0.1-0.2,0.1-0.2-0.1-0.4c-0.1-0.7-0.3-1.4-0.5-2.1c-0.1-0.3-0.2-0.7-0.2-1C38.5,19.1,38,17.2,37.6,16.7z"/>
		<path fill="none" stroke="#201F22" stroke-width="0.127" stroke-miterlimit="2.613" d="M35.2,28.5c0,0.1,0,0.2,0,0.2
			c0,0.1,0,0.1,0,0.1c0,0,0,0.1,0,0.1c0,0,0,0.1,0,0.2v0.1c0,0.1,0,0.1,0,0 M35.6,28.2c0,0.1,0,0.2,0,0.2c0,0,0,0.1,0,0.1
			c0,0,0,0.1,0,0.1c0,0,0,0.1,0,0.2c0,0,0,0.1,0,0.1c0,0.1,0,0.1,0,0 M36,28c0,0.1,0,0.2,0,0.3c0,0.1,0,0.1,0,0.1c0,0,0,0.1,0,0.1
			c0,0,0,0.1,0,0.2c0,0,0,0.1,0,0.1c0,0.1,0,0.1,0,0"/>
		<path fill="none" stroke="#201F22" stroke-width="0.118" stroke-miterlimit="2.613" d="M36.4,27.9c0,0,0.1,0.1,0.1,0.1v0v0l0,0v0
			v0l0,0v0v0v0v0v0c0,0,0,0.1,0,0.1l0,0.1v0.1v0.1l0,0v0v0v0.1 M37,27.5l0.1,0.1v0v0v0l0,0v0v0v0v0v0v0.1c0,0,0,0.1,0,0.1l0,0.1v0v0
			v0v0v0c0,0,0,0.1,0,0.1 M37.7,27c0.1,0,0.1,0,0.1,0.1c0,0.3,0,0.6,0,0.8 M37.4,27.2L37.4,27.2L37.4,27.2l0,0.1l0,0v0l0,0v0v0.1
			c0,0,0,0.1,0,0.1v0.1v0c0,0,0,0,0,0.1v0v0v0l0,0.1 M36.7,27.5c0,0,0,0.1,0,0.1l0,0v0v0v0v0l0,0v0v0v0v0.1v0v0c0,0,0,0.1,0,0.1
			l0,0.1c0,0,0,0,0,0l0,0l0,0v0h0c0,0,0.1,0.1,0,0 M34.9,28.5c0,0,0,0.1,0,0.1c0,0,0,0,0,0.1l0,0l0,0v0h0v0l0,0v0h0v0l0,0v0v0l0,0
			l0,0V29l0,0.1v0l0,0v0l0,0v0c0,0,0,0.1,0,0.1 M38.3,26.6c0,0,0,0.1,0,0.1v0v0v0l0,0v0v0l0,0l0,0v0v0l0,0.1c0,0,0,0.1,0,0.2
			c0,0,0,0.1,0,0.1v0.1v0v0v0v0v0.1 M38,26.9L38,26.9l0,0.1l0,0v0v0v0h0l0,0v0l0,0v0v0c0,0,0,0.1,0,0.1l0,0.1v0.1v0l0,0v0v0
			c0,0,0,0.1,0,0.1 M38.7,26.3c0,0,0,0.1,0,0.1v0v0l0,0v0l0,0v0v0v0v0v0l0,0v0v0c0,0,0,0.1,0,0.1v0.1c0,0,0,0.1,0,0.1v0v0v0v0
			c0,0.1,0,0.1,0,0 M39.1,26.1L39.1,26.1L39.1,26.1l0,0.1v0v0v0v0l0,0v0v0l0,0v0c0,0,0,0,0,0.1v0.1c0,0,0,0,0,0.1v0.1l0,0v0v0
			c0,0.1,0,0.1,0,0 M39.6,25.5C39.6,25.6,39.6,25.6,39.6,25.5l0.1,0.1v0l0,0v0l0,0v0l0,0v0v0l0,0v0c0,0,0,0.1,0,0.1c0,0,0,0,0,0.1
			l0,0.1v0v0l0,0v0c0,0.1,0,0.1,0,0 M36.1,27.8c0,0,0,0.1,0,0.1v0l0,0v0l0,0v0l0,0v0v0l0,0v0v0v0v0v0c0,0,0,0,0,0.1v0.1v0l0,0v0v0v0
			c0,0,0,0.1,0,0 M35.4,28.3C35.4,28.3,35.4,28.4,35.4,28.3l0,0.1c0,0,0,0,0,0.1v0v0v0v0l0,0v0v0v0l0,0v0l0,0v0c0,0,0.1,0,0.1,0.1
			c0,0,0,0.1,0,0.1c0,0,0,0,0,0.1l0,0v0v0l0,0v0 M38.5,26.4c0.1,0.2,0.1,0.3,0.1,0.5c0,0.1,0,0.1,0,0.2c0,0.1,0,0.2,0,0.2
			 M38.9,26.1c0,0.2,0.1,0.3,0.1,0.5c0,0.1,0,0.2,0,0.2v0.1c0,0.1,0,0.1,0,0 M37.2,27.3c0.1,0.1,0.1,0.3,0.1,0.4c0,0.1,0,0.2,0,0.2
			c0,0,0.1,0.1,0.1,0.2l0,0c0.1,0.1-0.1,0,0.2,0 M39.3,25.9C39.3,25.9,39.3,25.9,39.3,25.9L39.3,25.9l0.1,0.1l0,0v0v0l0,0v0v0v0v0
			l0,0l0,0c0,0,0,0.1,0,0.1c0,0,0,0,0,0v0.1v0v0v0l0,0c0,0,0,0,0,0.1 M39.7,25.4C39.7,25.4,39.8,25.4,39.7,25.4L39.7,25.4l0.1,0.1
			l0,0v0l0,0l0,0l0,0v0v0l0,0v0c0,0,0,0.1,0,0.1c0,0,0,0,0,0.1l0,0.1v0v0v0v0c0,0.1,0,0.1,0,0 M37.9,26.8c0,0,0,0.1,0,0.1v0l0,0l0,0
			v0v0v0v0l0,0v0v0v0v0v0c0,0,0,0.1,0,0.1v0.1c0,0,0,0.1,0,0.1v0v0v0l0,0c0,0.1,0,0.1,0,0 M37.6,27.1c0,0,0,0.1,0,0.1l0,0v0l0,0v0v0
			v0v0v0v0l0,0v0v0v0c0,0,0,0.1,0,0.1l0,0.1v0.1v0v0l0,0v0c0,0.1,0,0.1,0,0 M36.9,27.4c0.1,0.1,0.1,0.3,0.1,0.4c0,0.1,0,0.2,0,0.2
			c0,0,0.1,0.1,0.1,0.2l0,0c0.1,0.1-0.1,0,0.2,0 M36.5,27.7c0,0,0.1,0.1,0.1,0.1v0v0l0,0v0v0v0v0v0l0,0v0v0c0,0,0,0.1,0,0.1v0.1
			l0,0.1v0.1v0v0v0c0,0,0,0.1,0,0.1"/>
		<path fill="none" stroke="#201F22" stroke-width="0.127" stroke-miterlimit="2.613" d="M35.8,28.1c0,0.1,0,0.2,0,0.2
			c0,0.1,0,0.1,0,0.1c0,0,0,0,0,0.1c0,0,0,0.1,0,0.2c0,0,0,0.1,0,0.1c0,0.1,0,0.1,0,0"/>
		<path fill="none" stroke="#201F22" stroke-width="0.118" stroke-miterlimit="2.613" d="M39.4,25.7C39.5,25.7,39.5,25.7,39.4,25.7
			l0.1,0.1v0l0,0v0l0,0v0l0,0l0,0v0l0,0v0c0,0,0,0.1,0,0.1c0,0,0,0,0,0.1l0,0.1l0,0v0v0v0c0,0.1,0,0.1,0,0"/>
		<path fill-rule="evenodd" clip-rule="evenodd" fill="#201F22" d="M40.1,25.5c0,0.1-0.1-0.7-0.2-0.9c-0.1-0.2-0.7-0.9-1-0.9
			c-0.1,0-0.4,0-0.6,0c-0.8,0-1.2,0.5-1.6,0.8c-0.1,0.1-0.3,0.2-0.3,0.3c0,0.1-0.2,0.3-0.3,0.7C37.4,24.6,39.8,24.4,40.1,25.5"/>
		<path fill="none" stroke="#201F22" stroke-width="9.000000e-002" stroke-miterlimit="2.613" d="M40.1,25.5c0,0.1-0.1-0.7-0.2-0.9
			c-0.1-0.2-0.7-0.9-1-0.9c-0.1,0-0.4,0-0.6,0c-0.8,0-1.2,0.5-1.6,0.8c-0.1,0.1-0.3,0.2-0.3,0.3c0,0.1-0.2,0.3-0.3,0.7
			C37.4,24.6,39.8,24.4,40.1,25.5z"/>
		<path fill-rule="evenodd" clip-rule="evenodd" fill="#FFEB13" d="M40.1,25.4c0,0.1-0.1-0.6-0.2-0.9c-0.1-0.2-0.7-0.8-1-0.8
			c-0.1,0-0.4,0-0.6,0c-0.8,0-1.2,0.4-1.6,0.8c-0.1,0.1-0.3,0.2-0.3,0.3c0,0.1-0.1,0.3-0.2,0.6C37.5,24.4,39.8,24.3,40.1,25.4"/>
		<path fill="none" stroke="#201F22" stroke-width="9.000000e-002" stroke-miterlimit="2.613" d="M40.1,25.4c0,0.1-0.1-0.6-0.2-0.9
			c-0.1-0.2-0.7-0.8-1-0.8c-0.1,0-0.4,0-0.6,0c-0.8,0-1.2,0.4-1.6,0.8c-0.1,0.1-0.3,0.2-0.3,0.3c0,0.1-0.1,0.3-0.2,0.6
			C37.5,24.4,39.8,24.3,40.1,25.4z"/>
		<path fill-rule="evenodd" clip-rule="evenodd" fill="#C01722" d="M37.7,16.6c-0.7,2.2-0.7,5.9-1.3,8.1c0,0.1,1.1-1.2,3-0.6
			c0.2,0.1,0.4,0.4,0.4,0.4C38.7,20.2,38.4,18.1,37.7,16.6"/>
		<path fill="none" stroke="#201F22" stroke-width="9.000000e-002" stroke-miterlimit="2.613" d="M37.7,16.6
			c-0.7,2.2-0.7,5.9-1.3,8.1c0,0.1,1.1-1.2,3-0.6c0.2,0.1,0.4,0.4,0.4,0.4C38.7,20.2,38.4,18.1,37.7,16.6z"/>
		<path fill-rule="evenodd" clip-rule="evenodd" fill="#FFFFFF" d="M37.1,20.1c0,0.4-0.1,1.1-0.1,1.5c0,0.1,1.7-0.4,2.4,0.7
			c-0.3-0.9-0.3-1.4-0.5-1.9c0,0,0-0.1-0.1-0.1C38.4,19.9,37.1,19.9,37.1,20.1"/>
		<path fill="none" stroke="#201F22" stroke-width="9.000000e-002" stroke-miterlimit="2.613" d="M37.1,20.1c0,0.4-0.1,1.1-0.1,1.5
			c0,0.1,1.7-0.4,2.4,0.7c-0.3-0.9-0.3-1.4-0.5-1.9c0,0,0-0.1-0.1-0.1C38.4,19.9,37.1,19.9,37.1,20.1z"/>
		<path fill-rule="evenodd" clip-rule="evenodd" fill="#201F22" d="M37.8,15.9l0.9-0.4l0,1c0,0,0,0,0,0v0l-1,0.3L37.8,15.9z"/>
		<path fill="none" stroke="#201F22" stroke-width="9.000000e-002" stroke-miterlimit="2.613" d="M37.8,15.9l0.9-0.4l0,1
			c0,0,0,0,0,0v0l-1,0.3L37.8,15.9z"/>
		<path fill-rule="evenodd" clip-rule="evenodd" fill="#FFEB13" d="M37.7,16.7l0.1-0.9l0.8-0.4l0,0.9C38.6,16.5,37.7,16.6,37.7,16.7
			"/>
		<path fill="none" stroke="#201F22" stroke-width="9.000000e-002" stroke-miterlimit="2.613" d="M37.7,16.7l0.1-0.9l0.8-0.4l0,0.9
			C38.6,16.5,37.7,16.6,37.7,16.7z"/>
		<path fill-rule="evenodd" clip-rule="evenodd" fill="#FFEB13" d="M37.7,16.7l0.9-1.2l0,0.9C38.6,16.5,37.8,16.6,37.7,16.7"/>
		<path fill="none" stroke="#201F22" stroke-width="9.000000e-002" stroke-miterlimit="2.613" d="M37.7,16.7l0.9-1.2l0,0.9
			C38.6,16.5,37.8,16.6,37.7,16.7z"/>
		<path fill-rule="evenodd" clip-rule="evenodd" fill="#201F22" d="M37.7,16.4c-0.1,0-0.3,0.1-0.3,0.3c0,0.1,0.1,0.3,0.3,0.3
			c0.1,0,0.3-0.1,0.3-0.3C38,16.5,37.9,16.4,37.7,16.4"/>
		<path fill="none" stroke="#201F22" stroke-width="5.900000e-002" stroke-miterlimit="2.613" d="M37.7,16.4c-0.1,0-0.3,0.1-0.3,0.3
			c0,0.1,0.1,0.3,0.3,0.3c0.1,0,0.3-0.1,0.3-0.3C38,16.5,37.9,16.4,37.7,16.4z"/>
		<path fill-rule="evenodd" clip-rule="evenodd" fill="#FFEB13" d="M37.7,16.5c-0.1,0-0.2,0.1-0.2,0.2c0,0.1,0.1,0.2,0.2,0.2
			c0.1,0,0.2-0.1,0.2-0.2C37.9,16.5,37.8,16.5,37.7,16.5"/>
		<circle fill="none" stroke="#201F22" stroke-width="5.900000e-002" stroke-miterlimit="2.613" cx="37.7" cy="16.6" r="0.2"/>
		<path fill="none" stroke="#201F22" stroke-width="0.118" stroke-miterlimit="2.613" d="M39.7,24.5c0.1,0.1,0.1,0.1,0.1,0.2
			c0,0.1,0,0.2,0,0.2 M39.5,24.4C39.5,24.3,39.5,24.4,39.5,24.4C39.5,24.5,39.6,24.5,39.5,24.4c0,0.1,0.1,0.2,0.1,0.2
			c0,0.1,0,0.1,0,0.1c0,0,0,0.1,0,0.1c0,0,0,0,0,0c0,0,0,0,0,0 M39.3,24.3c0,0.1,0.1,0.2,0.1,0.2c0,0,0,0.1,0,0.1c0,0,0,0.1,0,0.1
			 M39.1,24.2c0,0.1,0,0.2,0,0.3v0.1c0,0,0,0.1,0,0.1 M38.9,24.2C38.9,24.1,38.9,24.2,38.9,24.2c0,0.2,0,0.3,0,0.5 M39.2,24.3
			L39.2,24.3c0,0.1,0.1,0.2,0.1,0.3c0,0,0,0.1,0,0.1c0,0,0,0.1,0,0.1 M38.7,24.2C38.7,24.1,38.7,24.2,38.7,24.2l0,0.3
			c0,0,0,0.1,0,0.1c0,0,0,0,0,0c0,0,0,0,0,0v0 M38.5,24.1v0.3v0.1v0c0,0,0,0,0,0 M38.3,24.1c0,0.1,0,0.2,0,0.3v0.1v0.1v0
			c0,0,0,0,0,0 M38.2,24.1v0.3v0.1v0.1v0c0,0,0,0,0,0 M38,24.2v0.1c0,0.1,0,0.1,0,0.2v0.1v0.1 M37.8,24.2v0.3c0,0.1,0,0.1,0,0.2
			 M37.6,24.2c0,0.1,0,0.2,0,0.4v0.1v0.1c0,0,0,0.1,0,0 M37.4,24.3c0,0.1,0,0.4,0,0.5 M37.2,24.4v0.6 M36.9,24.5V25 M36.7,24.6
			c0,0.1,0,0.2,0,0.3V25v0h0 M36.5,24.7C36.5,24.7,36.5,24.7,36.5,24.7l0,0.2v0.1c0,0,0,0,0,0.1v0.1c0,0,0,0,0,0.1"/>
		<path fill="none" stroke="#201F22" stroke-width="0.118" stroke-miterlimit="2.613" d="M40.2,27.8c0.3,0.5,0.1,1.5,0.1,2.2
			c0,0.7,0,1.5,0,2.2"/>
		<path fill="none" stroke="#201F22" stroke-width="0.118" stroke-miterlimit="2.613" d="M39.2,28.6c0.6,0.7,0.4,2.8,0.4,3.7
			 M38,28.7c-0.1,0.6-0.4,1.7-0.1,2.3c0,0.1,0.1,0.4,0.1,0.6v0.6 M38.6,28.7c0.1,0.5,0,1.2,0,1.7c0,0.2,0.1,0.6,0.1,0.8v0.5
			 M37.3,29.5c0,0.4-0.1,0.8-0.1,1.3c0,0.4,0,0.7,0,1.1c0,0.1-0.1,0.7,0.1,0.6 M36.5,30.1c0,0.4,0,0.8-0.1,1.1c0,0.1,0,0.4,0,0.4
			l0,0.1c0,0,0.1,0.4,0.1,0.4l0,0.1c0,0.2-0.1,0.4,0.1,0.5"/>
		<path fill="none" stroke="#201F22" stroke-width="9.600000e-002" stroke-miterlimit="2.613" d="M40.1,34.7c0,0.6,0,1.6-0.1,2.1
			c-0.1,0.3-0.3,0.7-0.3,1c0,0-0.1,0.3-0.1,0.4c0,0-0.1,0.1-0.1,0.1c0,0-0.1,0.1-0.1,0"/>
		<path fill="none" stroke="#201F22" stroke-width="9.600000e-002" stroke-miterlimit="2.613" d="M39.3,35c-0.2,0.8-0.3,1.7-0.5,2.5
			c-0.1,0.3-0.2,0.6-0.4,0.9c0,0.1-0.3,0.5-0.4,0.5"/>
		<path fill="none" stroke="#201F22" stroke-width="0.105" stroke-miterlimit="2.613" d="M37.9,35.1c-0.1,0.5-0.2,1.4-0.4,1.8
			c-0.1,0.2-0.1,0.5-0.2,0.7c-0.1,0.2-0.2,0.4-0.2,0.6c0,0.1-0.1,0.4-0.1,0.6c0,0-0.2,0.3-0.2,0.4c0,0.1-0.1,0.2-0.1,0"/>
		<path fill="none" stroke="#201F22" stroke-width="0.123" stroke-miterlimit="2.613" d="M37.1,36c-0.1,0.2-0.2,0.6-0.2,0.8
			c-0.1,0.3-0.4,0.6-0.5,0.8c-0.1,0.3-0.4,0.6-0.5,0.8c-0.1,0.2-0.3,0.7-0.3,0.9"/>
		<path fill="none" stroke="#201F22" stroke-width="9.500000e-002" stroke-miterlimit="2.613" d="M38.7,35.6
			c-0.2,0.6-0.3,1.3-0.5,1.9c-0.1,0.2-0.2,0.5-0.4,0.7c-0.1,0.1-0.3,0.4-0.4,0.4"/>
		<g>
			<rect x="3.9" y="4" fill="#FFFFFF" width="47.1" height="43.5"/>
			<path fill-rule="evenodd" clip-rule="evenodd" fill="#201F22" d="M27,40.8l-7.7-18.2L13,17.3l0.2,18.1
				C13.3,39.5,17.5,45.4,27,40.8"/>
			<path fill-rule="evenodd" clip-rule="evenodd" fill="#C01722" d="M27.5,40.5l-7.8-17.9l-6.4-5.2l0.2,17.8
				C13.5,39.2,17.8,45.1,27.5,40.5"/>
			<path fill-rule="evenodd" clip-rule="evenodd" fill="#201F22" d="M16.1,19.8L13,17.4l0-0.1c0,0,1.8,1.4,3.2,2.4
				C16.3,19.7,16.1,19.7,16.1,19.8"/>
			<path fill="none" stroke="#201F22" stroke-width="9.000000e-002" stroke-miterlimit="2.613" d="M16.1,19.8L13,17.4l0-0.1
				c0,0,1.8,1.4,3.2,2.4C16.3,19.7,16.1,19.7,16.1,19.8z"/>
			<path fill-rule="evenodd" clip-rule="evenodd" fill="#201F22" d="M13,16.8l-0.6-0.3l0,0.7c0,0,0,0,0,0v0l0.7,0.2L13,16.8z"/>
			<path fill="none" stroke="#201F22" stroke-width="9.000000e-002" stroke-miterlimit="2.613" d="M13,16.8l-0.6-0.3l0,0.7
				c0,0,0,0,0,0v0l0.7,0.2L13,16.8z"/>
			<path fill-rule="evenodd" clip-rule="evenodd" fill="#FFEB13" d="M13,17.5l-0.1-0.6l-0.6-0.3l0,0.6C12.4,17.3,13,17.4,13,17.5"/>
			<path fill="none" stroke="#201F22" stroke-width="9.000000e-002" stroke-miterlimit="2.613" d="M13,17.5l-0.1-0.6l-0.6-0.3l0,0.6
				C12.4,17.3,13,17.4,13,17.5z"/>
			<path fill-rule="evenodd" clip-rule="evenodd" fill="#FFEB13" d="M13,17.5l-0.6-0.9l0,0.6C12.4,17.3,13,17.4,13,17.5"/>
			<path fill="none" stroke="#201F22" stroke-width="9.000000e-002" stroke-miterlimit="2.613" d="M13,17.5l-0.6-0.9l0,0.6
				C12.4,17.3,13,17.4,13,17.5z"/>
			<path fill-rule="evenodd" clip-rule="evenodd" fill="#201F22" d="M13,17.2c0.1,0,0.2,0.1,0.2,0.2c0,0.1-0.1,0.2-0.2,0.2
				c-0.1,0-0.2-0.1-0.2-0.2C12.8,17.3,12.9,17.2,13,17.2"/>
			<circle fill="none" stroke="#201F22" stroke-width="4.100000e-002" stroke-miterlimit="2.613" cx="13" cy="17.4" r="0.2"/>
			<path fill-rule="evenodd" clip-rule="evenodd" fill="#FFEB13" d="M13,17.3c0.1,0,0.1,0.1,0.1,0.1c0,0.1-0.1,0.1-0.1,0.1
				c-0.1,0-0.1-0.1-0.1-0.1C12.9,17.3,13,17.3,13,17.3"/>
			<circle fill="none" stroke="#201F22" stroke-width="4.100000e-002" stroke-miterlimit="2.613" cx="13" cy="17.4" r="0.1"/>
			<path fill-rule="evenodd" clip-rule="evenodd" fill="#FFFFFF" d="M13.4,28.3c0.4,0.4,1.2,0.2,1.3,0.8c0,0.4,0.6,0.4,0.7,0.7
				c0.4,0.8,1.1,0.5,1.3,0.7c0.3,0.4,0.9,0.8,1.4,0.7c0.5-0.1,1.1,0.4,1.6,0.8c0.9,0.6,1.8,0.3,1.8,2.4c0,0.8,0,1.9-0.2,2.2
				c-0.5,0.7-1.5,0.6-2.5,0.9c-0.2,0-1.1-0.8-1.9-0.6c-0.4,0.1-0.8-0.2-1.2-0.1c-0.5,0.1-1.1,0.1-1.3-0.4c-0.3-0.6-0.9-0.6-0.9-0.9
				C13.5,34,13.4,29.9,13.4,28.3"/>
			<path fill="none" stroke="#201F22" stroke-width="9.000000e-002" stroke-miterlimit="2.613" d="M13.4,28.3
				c0.4,0.4,1.2,0.2,1.3,0.8c0,0.4,0.6,0.4,0.7,0.7c0.4,0.8,1.1,0.5,1.3,0.7c0.3,0.4,0.9,0.8,1.4,0.7c0.5-0.1,1.1,0.4,1.6,0.8
				c0.9,0.6,1.8,0.3,1.8,2.4c0,0.8,0,1.9-0.2,2.2c-0.5,0.7-1.5,0.6-2.5,0.9c-0.2,0-1.1-0.8-1.9-0.6c-0.4,0.1-0.8-0.2-1.2-0.1
				c-0.5,0.1-1.1,0.1-1.3-0.4c-0.3-0.6-0.9-0.6-0.9-0.9C13.5,34,13.4,29.9,13.4,28.3z"/>
			<path fill-rule="evenodd" clip-rule="evenodd" fill="#201F22" d="M19.2,29.6c-0.9-0.7-4.4-2.1-4.9-3.2c-0.5-1,0.4-2.5,0.1-1.7
				c-0.3,0.9,2.9,2.3,3.8,2.7c0.3,0.2,1.5,0.5,1.5,1c0,0.1-0.1,0.4-0.1,0.5C19.5,29.4,19.2,29.5,19.2,29.6"/>
			<path fill="none" stroke="#201F22" stroke-width="9.000000e-002" stroke-miterlimit="2.613" d="M19.2,29.6
				c-0.9-0.7-4.4-2.1-4.9-3.2c-0.5-1,0.4-2.5,0.1-1.7c-0.3,0.9,2.9,2.3,3.8,2.7c0.3,0.2,1.5,0.5,1.5,1c0,0.1-0.1,0.4-0.1,0.5
				C19.5,29.4,19.2,29.5,19.2,29.6z"/>
			<path fill-rule="evenodd" clip-rule="evenodd" fill="#FFEB13" d="M19.4,29.5c-0.9-0.7-4.5-2.3-5-3.4c-0.5-1.1,0.4-2.6,0.1-1.8
				c-0.3,1,3,2.5,3.9,2.9c0.3,0.2,1.5,0.6,1.5,1.1c0,0.1-0.1,0.5-0.1,0.6C19.8,29.2,19.4,29.4,19.4,29.5"/>
			<path fill="none" stroke="#201F22" stroke-width="9.000000e-002" stroke-miterlimit="2.613" d="M19.4,29.5
				c-0.9-0.7-4.5-2.3-5-3.4c-0.5-1.1,0.4-2.6,0.1-1.8c-0.3,1,3,2.5,3.9,2.9c0.3,0.2,1.5,0.6,1.5,1.1c0,0.1-0.1,0.5-0.1,0.6
				C19.8,29.2,19.4,29.4,19.4,29.5z"/>
			<path fill-rule="evenodd" clip-rule="evenodd" fill="#C01722" d="M20.8,29.5c0.1-3.8,0.8-7.9,0.3-9.5c-2-1.4-3.2-2.3-4.5-3.5
				c-0.2-0.1-1.8,6.4-2.3,7.9C15,26.3,17.9,26.9,20.8,29.5"/>
			<path fill="none" stroke="#201F22" stroke-width="9.000000e-002" stroke-miterlimit="2.613" d="M20.8,29.5
				c0.1-3.8,0.8-7.9,0.3-9.5c-2-1.4-3.2-2.3-4.5-3.5c-0.2-0.1-1.8,6.4-2.3,7.9C15,26.3,17.9,26.9,20.8,29.5z"/>
			<path fill-rule="evenodd" clip-rule="evenodd" fill="#FFFFFF" d="M19.3,21.9c-0.3-0.1-0.9-0.7-1.2-0.9c-0.6-0.3-2-1.5-2.3-1.2
				c-0.6,0.5-0.7,1.4-0.8,2.1c-0.1,0.3,0.2,0.3,0.5,0.5c0.4,0.2,0.6,0.5,1.1,0.5c1.2,0.2,1.9,1.1,2.5,0.8c0.3-0.1,0.1-1,0.4-1.2
				C20.1,22.3,19.5,22.2,19.3,21.9"/>
			<path fill="none" stroke="#201F22" stroke-width="9.000000e-002" stroke-miterlimit="2.613" d="M19.3,21.9
				c-0.3-0.1-0.9-0.7-1.2-0.9c-0.6-0.3-2-1.5-2.3-1.2c-0.6,0.5-0.7,1.4-0.8,2.1c-0.1,0.3,0.2,0.3,0.5,0.5c0.4,0.2,0.6,0.5,1.1,0.5
				c1.2,0.2,1.9,1.1,2.5,0.8c0.3-0.1,0.1-1,0.4-1.2C20.1,22.3,19.5,22.2,19.3,21.9z"/>
			<path fill-rule="evenodd" clip-rule="evenodd" fill="#BF9262" d="M21,24.8c0,0.1,0,0.2-0.1,0.4c0.1,0,0.1,0,0.2-0.1
				c0,0.1-0.1,0.2-0.2,0.3c0,0,0.1,0,0.2-0.1v0.1c0,0.1-0.1,0.1-0.1,0.2c-0.1,0-0.1,0.1-0.1,0.2c-0.1-0.1-0.1-0.3-0.1-0.6
				c-0.1-0.1,0-0.2,0.1-0.3c0,0-0.1,0.1-0.1,0.1c0-0.1,0.1-0.3,0.2-0.4c0.1-0.1,0.2-0.1,0.2,0.1c0,0.1,0,0.1-0.1,0.2
				C21,24.8,21,24.9,21,24.8"/>
			<path fill-rule="evenodd" clip-rule="evenodd" fill="#201F22" d="M16.6,16.6c0.7,2.1,0.8,5.8,1.3,8c0,0.1,0.1,0.7,0.2,0.7
				c0,0-0.3-0.4-0.4-0.5c-0.5-0.3-1.7-1.2-2.8-0.6c-0.1,0-0.2,0.1-0.2,0.2c-0.1,0.1-0.1,0.2-0.1,0.2c-0.1-0.2-0.1-0.2,0.1-0.4
				c0.1-0.7,0.3-1.4,0.5-2.1c0.1-0.3,0.2-0.7,0.2-1C15.7,19.1,16.2,17.1,16.6,16.6"/>
			<path fill="none" stroke="#201F22" stroke-width="9.000000e-002" stroke-miterlimit="2.613" d="M16.6,16.6c0.7,2.1,0.8,5.8,1.3,8
				c0,0.1,0.1,0.7,0.2,0.7c0,0-0.3-0.4-0.4-0.5c-0.5-0.3-1.7-1.2-2.8-0.6c-0.1,0-0.2,0.1-0.2,0.2c-0.1,0.1-0.1,0.2-0.1,0.2
				c-0.1-0.2-0.1-0.2,0.1-0.4c0.1-0.7,0.3-1.4,0.5-2.1c0.1-0.3,0.2-0.7,0.2-1C15.7,19.1,16.2,17.1,16.6,16.6z"/>
			<path fill-rule="evenodd" clip-rule="evenodd" fill="#201F22" d="M20.9,20.1l-4.5-3.5l0.1-0.2c0,0,2.5,2,4.6,3.5
				C21.2,19.9,21,19.9,20.9,20.1"/>
			<path fill="none" stroke="#201F22" stroke-width="9.000000e-002" stroke-miterlimit="2.613" d="M20.9,20.1l-4.5-3.5l0.1-0.2
				c0,0,2.5,2,4.6,3.5C21.2,19.9,21,19.9,20.9,20.1z"/>
			<path fill="none" stroke="#201F22" stroke-width="0.127" stroke-miterlimit="2.613" d="M19,28.5c0,0.1,0,0.2,0,0.2
				c0,0.1,0,0.1,0,0.1c0,0,0,0.1,0,0.1c0,0,0,0.1,0,0.2c0,0,0,0.1,0,0.1c0,0.1,0,0.1,0,0 M18.6,28.2v0.2c0,0.1,0,0.1,0,0.1
				c0,0,0,0.1,0,0.1c0,0,0,0.1,0,0.1v0.1c0,0,0,0.1,0,0 M18.2,27.9c0,0.1,0,0.2,0,0.3c0,0.1,0,0.1,0,0.1c0,0,0,0.1,0,0.1
				c0,0,0,0.1,0,0.2c0,0,0,0.1,0,0.1c0,0.1,0,0.1,0,0"/>
			<path fill="none" stroke="#201F22" stroke-width="0.118" stroke-miterlimit="2.613" d="M17.8,27.8C17.8,27.8,17.8,27.9,17.8,27.8
				l-0.1,0.1v0l0,0v0v0l0,0v0v0v0v0l0,0v0.1v0.1l0,0.1v0.1v0v0v0c0,0,0,0.1,0,0.1 M17.2,27.4l-0.1,0.1v0v0v0l0,0v0v0v0v0v0
				c0,0,0,0,0,0.1v0.1v0.1l0,0v0v0v0v0c0,0,0,0.1,0,0.1 M16.6,26.9c-0.1,0-0.1,0-0.1,0.1c0,0.3,0,0.6,0,0.8 M16.8,27.2L16.8,27.2
				l0,0.1v0l0,0v0l0,0v0v0.1c0,0,0,0.1,0,0.1v0.1v0c0,0,0,0,0,0.1v0v0v0l0,0.1 M17.5,27.5c0,0,0,0.1,0,0.1v0l0,0v0v0v0v0v0v0l0,0
				v0.1v0v0c0,0,0,0.1,0,0.1v0.1c0,0,0,0,0,0l0,0l0,0v0h0c0,0-0.1,0.1,0,0 M19.3,28.5c0,0,0,0.1,0,0.1c0,0,0,0,0,0.1l0,0l0,0v0h0v0
				l0,0v0l0,0l0,0l0,0v0v0l0,0v0V29l0,0.1v0l0,0v0l0,0v0c0,0,0,0.1,0,0.1 M15.9,26.6c0,0,0,0.1,0,0.1l0,0v0v0v0v0l0,0l0,0l0,0v0v0
				l0,0.1c0,0,0,0.1,0,0.2v0.1v0.1v0v0l0,0v0c0,0,0,0.1,0,0.1 M16.2,26.8L16.2,26.8l0,0.1l0,0v0v0v0h0l0,0v0l0,0l0,0v0
				c0,0,0,0.1,0,0.1l0,0.1v0.1v0l0,0v0v0c0,0,0,0.1,0,0.1 M15.5,26.2c0,0,0,0.1,0,0.1v0v0l0,0l0,0v0v0v0v0v0v0l0,0v0v0
				c0,0,0,0.1,0,0.1v0.1c0,0,0,0.1,0,0.1v0v0l0,0v0c0,0.1,0,0.1,0,0 M15.1,26.1L15.1,26.1L15.1,26.1l0,0.1v0l0,0v0v0l0,0v0v0l0,0v0
				c0,0,0,0,0,0.1l0,0.1c0,0,0,0,0,0.1v0.1v0l0,0v0c0,0.1,0,0.1,0,0 M14.6,25.5C14.6,25.5,14.6,25.5,14.6,25.5l-0.1,0.1l0,0l0,0v0
				l0,0v0l0,0v0v0l0,0v0c0,0,0,0.1,0,0.1c0,0,0,0,0,0.1v0.1l0,0v0v0v0c0,0.1,0,0.1,0,0 M18.1,27.8c0,0,0,0.1,0,0.1v0l0,0l0,0l0,0v0
				l0,0v0l0,0l0,0v0v0v0v0v0c0,0,0,0,0,0.1v0.1l0,0v0v0v0v0c0,0,0,0.1,0,0 M18.8,28.3C18.8,28.3,18.9,28.3,18.8,28.3l0,0.1
				c0,0,0,0,0,0.1v0v0l0,0v0v0v0v0v0l0,0v0l0,0v0c0,0-0.1,0-0.1,0.1c0,0,0,0.1,0,0.1c0,0,0,0,0,0.1l0,0v0l0,0v0v0 M15.7,26.3
				c-0.1,0.2-0.1,0.3-0.1,0.5c0,0.1,0,0.1,0,0.2c0,0.1,0,0.2,0,0.2 M15.3,26c0,0.2-0.1,0.3-0.1,0.5c0,0.1,0,0.2,0,0.2v0.1
				c0,0.1,0,0.1,0,0 M17,27.2c-0.1,0.1-0.1,0.3-0.1,0.4c0,0.1,0,0.2,0,0.2c0,0-0.1,0.1-0.1,0.2l0,0c-0.1,0.1,0.1,0-0.2,0 M15,25.8
				C14.9,25.8,14.9,25.8,15,25.8L15,25.8l-0.1,0.1l0,0v0v0h0v0v0v0l0,0l0,0v0c0,0,0,0.1,0,0.1c0,0,0,0,0,0v0.1v0v0v0l0,0
				c0,0,0,0,0,0.1 M14.5,25.3C14.5,25.3,14.5,25.3,14.5,25.3l-0.1,0.1v0l0,0l0,0l0,0v0l0,0l0,0v0l0,0v0c0,0,0,0.1,0,0.1
				c0,0,0,0,0,0.1v0.1v0v0v0v0c0,0.1,0,0.1,0,0 M16.4,26.8c0,0,0,0.1,0,0.1v0v0l0,0v0l0,0v0v0v0v0l0,0l0,0v0v0c0,0,0,0.1,0,0.1
				l0,0.1v0.1l0,0v0v0v0c0,0.1,0,0.1,0,0 M16.7,27c0,0,0,0.1,0,0.1v0l0,0l0,0v0v0v0v0v0v0l0,0v0l0,0v0c0,0,0,0.1,0,0.1l0,0.1v0.1
				l0,0v0v0v0c0,0.1,0,0.1,0,0 M17.4,27.4c-0.1,0.1-0.1,0.3-0.1,0.4c0,0.1,0,0.2,0,0.2c0,0-0.1,0.1-0.1,0.2l0,0
				c-0.1,0.1,0.1,0-0.2,0 M17.7,27.6c0,0-0.1,0.1-0.1,0.1v0v0l0,0v0v0v0v0l0,0v0v0v0c0,0,0,0.1,0,0.1v0.1v0.1c0,0,0,0,0,0.1v0l0,0v0
				v0.1"/>
			<path fill="none" stroke="#201F22" stroke-width="0.127" stroke-miterlimit="2.613" d="M18.4,28c0,0.1,0,0.2,0,0.3
				c0,0.1,0,0.1,0,0.1c0,0,0,0.1,0,0.1c0,0,0,0.1,0,0.1v0.1c0,0.1,0,0.1,0,0"/>
			<path fill="none" stroke="#201F22" stroke-width="0.118" stroke-miterlimit="2.613" d="M14.8,25.6C14.8,25.6,14.7,25.7,14.8,25.6
				l-0.1,0.1v0l0,0v0l0,0v0l0,0v0v0l0,0l0,0c0,0,0,0.1,0,0.1c0,0,0,0,0,0.1v0.1l0,0v0v0v0c0,0.1,0,0.1,0,0"/>
			<path fill-rule="evenodd" clip-rule="evenodd" fill="#201F22" d="M14.1,25.4c0,0.1,0.1-0.7,0.2-0.9c0.1-0.2,0.7-0.9,1-0.9
				c0.1,0,0.4,0,0.6,0c0.8,0,1.2,0.5,1.6,0.8c0.1,0.1,0.3,0.2,0.3,0.3c0,0.1,0.2,0.3,0.3,0.7C16.8,24.5,14.4,24.3,14.1,25.4"/>
			<path fill="none" stroke="#201F22" stroke-width="9.000000e-002" stroke-miterlimit="2.613" d="M14.1,25.4c0,0.1,0.1-0.7,0.2-0.9
				c0.1-0.2,0.7-0.9,1-0.9c0.1,0,0.4,0,0.6,0c0.8,0,1.2,0.5,1.6,0.8c0.1,0.1,0.3,0.2,0.3,0.3c0,0.1,0.2,0.3,0.3,0.7
				C16.8,24.5,14.4,24.3,14.1,25.4z"/>
			<path fill-rule="evenodd" clip-rule="evenodd" fill="#FFEB13" d="M14.1,25.3c0,0.1,0.1-0.6,0.2-0.9c0.1-0.2,0.7-0.8,1-0.8
				c0.1,0,0.4,0,0.6,0c0.8,0,1.2,0.4,1.6,0.8c0.1,0.1,0.3,0.2,0.3,0.3c0,0.1,0.1,0.3,0.2,0.6C16.7,24.4,14.4,24.3,14.1,25.3"/>
			<path fill="none" stroke="#201F22" stroke-width="9.000000e-002" stroke-miterlimit="2.613" d="M14.1,25.3c0,0.1,0.1-0.6,0.2-0.9
				c0.1-0.2,0.7-0.8,1-0.8c0.1,0,0.4,0,0.6,0c0.8,0,1.2,0.4,1.6,0.8c0.1,0.1,0.3,0.2,0.3,0.3c0,0.1,0.1,0.3,0.2,0.6
				C16.7,24.4,14.4,24.3,14.1,25.3z"/>
			<path fill-rule="evenodd" clip-rule="evenodd" fill="#C01722" d="M16.5,16.5c0.7,2.2,0.7,5.9,1.3,8.1c0,0.1-1.1-1.2-3-0.6
				c-0.2,0.1-0.4,0.4-0.4,0.4C15.5,20.1,15.9,18,16.5,16.5"/>
			<path fill="none" stroke="#201F22" stroke-width="9.000000e-002" stroke-miterlimit="2.613" d="M16.5,16.5
				c0.7,2.2,0.7,5.9,1.3,8.1c0,0.1-1.1-1.2-3-0.6c-0.2,0.1-0.4,0.4-0.4,0.4C15.5,20.1,15.9,18,16.5,16.5z"/>
			<path fill-rule="evenodd" clip-rule="evenodd" fill="#FFFFFF" d="M17.2,20c0,0.4,0.1,1.1,0.1,1.5c0,0.1-1.7-0.4-2.4,0.7
				c0.3-0.9,0.3-1.4,0.5-1.9c0,0,0-0.1,0.1-0.1C15.8,19.9,17.2,19.8,17.2,20"/>
			<path fill="none" stroke="#201F22" stroke-width="9.000000e-002" stroke-miterlimit="2.613" d="M17.2,20c0,0.4,0.1,1.1,0.1,1.5
				c0,0.1-1.7-0.4-2.4,0.7c0.3-0.9,0.3-1.4,0.5-1.9c0,0,0-0.1,0.1-0.1C15.8,19.9,17.2,19.8,17.2,20z"/>
			<path fill-rule="evenodd" clip-rule="evenodd" fill="#201F22" d="M16.5,15.8l-0.9-0.4l0,1c0,0,0,0,0,0v0l1,0.3L16.5,15.8z"/>
			<path fill="none" stroke="#201F22" stroke-width="9.000000e-002" stroke-miterlimit="2.613" d="M16.5,15.8l-0.9-0.4l0,1
				c0,0,0,0,0,0v0l1,0.3L16.5,15.8z"/>
			<path fill-rule="evenodd" clip-rule="evenodd" fill="#FFEB13" d="M16.5,16.7l-0.1-0.9l-0.8-0.4l0,0.9
				C15.6,16.4,16.5,16.5,16.5,16.7"/>
			<path fill="none" stroke="#201F22" stroke-width="9.000000e-002" stroke-miterlimit="2.613" d="M16.5,16.7l-0.1-0.9l-0.8-0.4
				l0,0.9C15.6,16.4,16.5,16.5,16.5,16.7z"/>
			<path fill-rule="evenodd" clip-rule="evenodd" fill="#FFEB13" d="M16.5,16.7l-0.9-1.2l0,0.9C15.6,16.4,16.4,16.6,16.5,16.7"/>
			<path fill="none" stroke="#201F22" stroke-width="9.000000e-002" stroke-miterlimit="2.613" d="M16.5,16.7l-0.9-1.2l0,0.9
				C15.6,16.4,16.4,16.6,16.5,16.7z"/>
			<path fill-rule="evenodd" clip-rule="evenodd" fill="#201F22" d="M16.5,16.3c0.1,0,0.3,0.1,0.3,0.3c0,0.1-0.1,0.3-0.3,0.3
				c-0.1,0-0.3-0.1-0.3-0.3C16.2,16.4,16.4,16.3,16.5,16.3"/>
			<circle fill="none" stroke="#201F22" stroke-width="5.900000e-002" stroke-miterlimit="2.613" cx="16.5" cy="16.6" r="0.3"/>
			<path fill-rule="evenodd" clip-rule="evenodd" fill="#FFEB13" d="M16.5,16.4c0.1,0,0.2,0.1,0.2,0.2c0,0.1-0.1,0.2-0.2,0.2
				c-0.1,0-0.2-0.1-0.2-0.2C16.3,16.5,16.4,16.4,16.5,16.4"/>
			<circle fill="none" stroke="#201F22" stroke-width="5.900000e-002" stroke-miterlimit="2.613" cx="16.5" cy="16.6" r="0.2"/>
			<path fill="none" stroke="#201F22" stroke-width="0.118" stroke-miterlimit="2.613" d="M14.5,24.4c-0.1,0.1-0.1,0.1-0.1,0.2
				c0,0.1,0,0.2,0,0.2 M14.7,24.4C14.7,24.3,14.7,24.4,14.7,24.4C14.7,24.4,14.7,24.4,14.7,24.4c0,0.1-0.1,0.1-0.1,0.2
				c0,0.1,0,0.1,0,0.1c0,0,0,0.1,0,0.1c0,0,0,0,0,0c0,0,0,0,0,0 M14.9,24.2c0,0.1-0.1,0.2-0.1,0.2c0,0,0,0.1,0,0.1c0,0,0,0.1,0,0.1
				 M15.2,24.1c0,0.1,0,0.2,0,0.3v0.1c0,0,0,0.1,0,0.1 M15.4,24.1C15.4,24,15.3,24.1,15.4,24.1c0,0.2,0,0.3,0,0.5 M15,24.2L15,24.2
				c0,0.1-0.1,0.2-0.1,0.3c0,0,0,0.1,0,0.1c0,0,0,0.1,0,0.1 M15.6,24.1C15.5,24,15.5,24.1,15.6,24.1l0,0.3c0,0,0,0.1,0,0.1
				c0,0,0,0,0,0c0,0,0,0,0,0v0 M15.7,24v0.3v0.1v0c0,0,0,0,0,0 M15.9,24c0,0.1,0,0.2,0,0.3v0.1v0.1v0c0,0,0,0,0,0 M16.1,24.1v0.3
				v0.1v0.1v0c0,0,0,0,0,0 M16.2,24.1v0.1c0,0.1,0,0.1,0,0.2v0.1v0.1 M16.5,24.1v0.3c0,0.1,0,0.1,0,0.2 M16.6,24.2
				c0,0.1,0,0.2,0,0.4v0.1v0.1c0,0,0,0.1,0,0 M16.9,24.2c0,0.2,0,0.4,0,0.5 M17.1,24.3v0.6 M17.3,24.4v0.5 M17.5,24.5
				c0,0.1,0,0.2,0,0.3V25v0h0 M17.7,24.6C17.7,24.7,17.7,24.7,17.7,24.6l0,0.2v0.1c0,0,0,0,0,0.1V25c0,0,0,0,0,0.1 M14.1,27.7
				c-0.3,0.5-0.2,1.5-0.2,2.2c0,0.7,0,1.5,0,2.2 M15,28.5c-0.6,0.7-0.4,2.8-0.4,3.7 M16.2,28.7c0.1,0.6,0.4,1.7,0.1,2.3
				c0,0.1-0.1,0.4-0.1,0.6v0.6 M15.7,28.6c-0.1,0.5,0,1.2,0,1.7c0,0.2-0.1,0.6-0.1,0.8v0.5 M17,29.5c0,0.4,0.1,0.8,0.1,1.3
				c0,0.4,0,0.8,0,1.1c0,0.1,0.1,0.7-0.1,0.7 M17.8,30c0,0.4,0,0.8,0.1,1.1c0,0.1,0,0.4,0,0.4l0,0.1c0,0-0.1,0.4-0.1,0.4l0,0.1
				c0,0.2,0.1,0.4-0.1,0.5"/>
			<path fill="none" stroke="#201F22" stroke-width="9.600000e-002" stroke-miterlimit="2.613" d="M14.1,34.7c0,0.6,0,1.6,0.1,2.1
				c0.1,0.3,0.3,0.7,0.3,1c0,0,0.1,0.3,0.1,0.4c0,0,0.1,0.1,0.1,0.1c0,0,0.1,0.1,0.1,0"/>
			<path fill="none" stroke="#201F22" stroke-width="9.600000e-002" stroke-miterlimit="2.613" d="M14.9,35c0.2,0.8,0.3,1.7,0.5,2.5
				c0.1,0.3,0.2,0.6,0.4,0.9c0.1,0.1,0.3,0.5,0.4,0.5"/>
			<path fill="none" stroke="#201F22" stroke-width="0.105" stroke-miterlimit="2.613" d="M16.4,35c0.1,0.5,0.2,1.4,0.4,1.8
				c0.1,0.2,0.1,0.5,0.2,0.7c0.1,0.2,0.2,0.4,0.2,0.6c0,0.1,0.1,0.5,0.1,0.6c0,0,0.2,0.3,0.2,0.4c0,0,0.1,0.2,0.1,0"/>
			<path fill="none" stroke="#201F22" stroke-width="0.123" stroke-miterlimit="2.613" d="M17.2,35.9c0.1,0.2,0.2,0.6,0.2,0.8
				c0.1,0.3,0.4,0.6,0.5,0.8c0.1,0.3,0.4,0.6,0.5,0.8c0.1,0.2,0.3,0.7,0.3,0.9"/>
			<path fill="none" stroke="#201F22" stroke-width="9.500000e-002" stroke-miterlimit="2.613" d="M15.6,35.5
				c0.2,0.6,0.3,1.3,0.5,1.9c0.1,0.2,0.2,0.5,0.4,0.7c0.1,0.1,0.3,0.4,0.4,0.4"/>
			<path fill-rule="evenodd" clip-rule="evenodd" fill="#201F22" d="M27.2,40.9l7.7-18.2l6.3-5.3L41,35.5
				C40.9,39.5,36.8,45.5,27.2,40.9"/>
			<path fill-rule="evenodd" clip-rule="evenodd" fill="#C01722" d="M26.7,40.6l7.8-17.9l6.4-5.2l-0.2,17.8
				C40.7,39.2,36.4,45.1,26.7,40.6"/>
			<path fill-rule="evenodd" clip-rule="evenodd" fill="#FFFFFF" d="M40.9,28.4c-0.4,0.4-1.2,0.2-1.3,0.8c0,0.4-0.6,0.4-0.7,0.7
				c-0.4,0.8-1.1,0.5-1.3,0.7c-0.3,0.4-0.9,0.8-1.4,0.7c-0.5-0.1-1.1,0.4-1.6,0.8c-0.9,0.6-1.8,0.3-1.8,2.4c0,0.8-0.1,1.9,0.2,2.2
				c0.5,0.7,1.5,0.6,2.5,0.9c0.2,0,1.1-0.8,1.9-0.6c0.4,0.1,0.8-0.2,1.2-0.1c0.5,0.1,1.1,0.1,1.3-0.4c0.3-0.6,0.9-0.6,0.9-0.9
				C40.8,34,40.9,29.9,40.9,28.4"/>
			<path fill="none" stroke="#201F22" stroke-width="9.000000e-002" stroke-miterlimit="2.613" d="M40.9,28.4
				c-0.4,0.4-1.2,0.2-1.3,0.8c0,0.4-0.6,0.4-0.7,0.7c-0.4,0.8-1.1,0.5-1.3,0.7c-0.3,0.4-0.9,0.8-1.4,0.7c-0.5-0.1-1.1,0.4-1.6,0.8
				c-0.9,0.6-1.8,0.3-1.8,2.4c0,0.8-0.1,1.9,0.2,2.2c0.5,0.7,1.5,0.6,2.5,0.9c0.2,0,1.1-0.8,1.9-0.6c0.4,0.1,0.8-0.2,1.2-0.1
				c0.5,0.1,1.1,0.1,1.3-0.4c0.3-0.6,0.9-0.6,0.9-0.9C40.8,34,40.9,29.9,40.9,28.4z"/>
			<path fill-rule="evenodd" clip-rule="evenodd" fill="#C01722" d="M33.4,29.6c-0.1-3.8-0.8-7.9-0.3-9.5c2-1.4,3.2-2.3,4.5-3.5
				c0.2-0.1,1.8,6.4,2.3,7.9C39.2,26.3,36.3,27,33.4,29.6"/>
			<path fill="none" stroke="#201F22" stroke-width="9.000000e-002" stroke-miterlimit="2.613" d="M33.4,29.6
				c-0.1-3.8-0.8-7.9-0.3-9.5c2-1.4,3.2-2.3,4.5-3.5c0.2-0.1,1.8,6.4,2.3,7.9C39.2,26.3,36.3,27,33.4,29.6z"/>
			<path fill-rule="evenodd" clip-rule="evenodd" fill="#BF9262" d="M33.2,24.9c0,0.1,0,0.2,0.1,0.4c-0.1,0-0.1,0-0.2-0.1
				c0,0.1,0.1,0.2,0.2,0.3c0,0-0.1,0-0.2-0.1v0.1c0,0.1,0.1,0.1,0.1,0.2c0.1,0,0.1,0.1,0.1,0.2c0.1-0.1,0.1-0.3,0.1-0.6
				c0.1-0.1,0-0.2-0.1-0.3c0,0,0.1,0.1,0.1,0.1c0-0.1,0-0.3-0.2-0.4c-0.1-0.1-0.2-0.1-0.2,0.1c0,0.1,0,0.1,0.1,0.2
				C33.3,24.9,33.3,24.9,33.2,24.9"/>
			<path fill-rule="evenodd" clip-rule="evenodd" fill="#201F22" d="M33.3,20.1l4.5-3.5l-0.1-0.2c0,0-2.5,2-4.6,3.5
				C33.1,20,33.3,19.9,33.3,20.1"/>
			<path fill="none" stroke="#201F22" stroke-width="9.000000e-002" stroke-miterlimit="2.613" d="M33.3,20.1l4.5-3.5l-0.1-0.2
				c0,0-2.5,2-4.6,3.5C33.1,20,33.3,19.9,33.3,20.1z"/>
			<path fill-rule="evenodd" clip-rule="evenodd" fill="#201F22" d="M27.9,39.2c0,0.3,0.6,1.3,1,2.3c0,0.1,0.1,0.2,0,0.3
				c-0.4,0.6,0.3,0.9,0.3,1c-0.1,0.1,0.1,0.1,0.1,0.2c0.1,0.3-0.2,0.2-0.5,0.2c-0.3,0,0.4,1,0.3,1c-0.8-0.2-2,0-2-0.8
				c0-0.3,0.5-0.5,0.4-0.8c0,0-0.2,0-0.4,0c0,0-0.1,0-0.1-0.1c0,0,0,0,0,0c-0.2,0-0.4,0-0.4,0C26.6,42.9,27,43,27,43.4
				c0,0.8-1.2,0.6-2,0.8c-0.1,0,0.6-1,0.3-1c-0.3,0-0.6,0.1-0.5-0.2c0-0.1,0.2-0.1,0.1-0.2c-0.1-0.1,0.7-0.4,0.3-1
				c-0.1-0.1,0-0.2,0-0.3c0.4-1,1-2,1-2.3c0.2,0,0.4-0.3,0.4-0.3c0.2-0.3,0.1-0.3,0.1,0c0,0.3,0.1,0.6,0.3,0.9
				c0.1-0.3,0.3-0.6,0.3-0.8c0-0.2-0.1-0.2,0.1,0C27.6,39,27.7,39.3,27.9,39.2 M27.1,41.9c0.2-0.3,0.5-0.7-0.1-0.8
				C26.6,41.3,27,41.7,27.1,41.9"/>
			<path fill="none" stroke="#201F22" stroke-width="9.000000e-002" stroke-miterlimit="2.613" d="M27.9,39.2c0,0.3,0.6,1.3,1,2.3
				c0,0.1,0.1,0.2,0,0.3c-0.4,0.6,0.3,0.9,0.3,1c-0.1,0.1,0.1,0.1,0.1,0.2c0.1,0.3-0.2,0.2-0.5,0.2c-0.3,0,0.4,1,0.3,1
				c-0.8-0.2-2,0-2-0.8c0-0.3,0.5-0.5,0.4-0.8c0,0-0.2,0-0.4,0c0,0-0.1,0-0.1-0.1c0,0,0,0,0,0c-0.2,0-0.4,0-0.4,0
				C26.6,42.9,27,43,27,43.4c0,0.8-1.2,0.6-2,0.8c-0.1,0,0.6-1,0.3-1c-0.3,0-0.6,0.1-0.5-0.2c0-0.1,0.2-0.1,0.1-0.2
				c-0.1-0.1,0.7-0.4,0.3-1c-0.1-0.1,0-0.2,0-0.3c0.4-1,1-2,1-2.3c0.2,0,0.4-0.3,0.4-0.3c0.2-0.3,0.1-0.3,0.1,0
				c0,0.3,0.1,0.6,0.3,0.9c0.1-0.3,0.3-0.6,0.3-0.8c0-0.2-0.1-0.2,0.1,0C27.6,39,27.7,39.3,27.9,39.2z M27.1,41.9
				c0.2-0.3,0.5-0.7-0.1-0.8C26.6,41.3,27,41.7,27.1,41.9z"/>
			<path fill-rule="evenodd" clip-rule="evenodd" fill="#C01722" d="M26.4,39.3c0,0.3-0.6,1.2-0.9,2.2c0,0.1-0.1,0.2,0,0.3
				c0.4,0.5-0.3,0.8-0.3,1c0.1,0.1-0.1,0.1-0.1,0.2c-0.1,0.3,0.2,0.2,0.5,0.2c0.3,0-0.4,1-0.3,1c0.8-0.2,1.9,0,1.9-0.8
				c0-0.3-0.4-0.5-0.4-0.8c0,0,0.2,0,0.4,0c0.2,0,0.2-0.2,0.2-0.3c0-0.1,0-0.2,0-0.2c0-0.2-0.9-0.9,0.1-1c0.1,0,0.3,0.1,0.3,0.1
				c0-0.6-0.8-1.6-0.8-2.2c0-0.2,0.1-0.2-0.1,0C26.7,39.1,26.6,39.4,26.4,39.3"/>
			<path fill="none" stroke="#201F22" stroke-width="9.000000e-002" stroke-miterlimit="2.613" d="M26.4,39.3c0,0.3-0.6,1.2-0.9,2.2
				c0,0.1-0.1,0.2,0,0.3c0.4,0.5-0.3,0.8-0.3,1c0.1,0.1-0.1,0.1-0.1,0.2c-0.1,0.3,0.2,0.2,0.5,0.2c0.3,0-0.4,1-0.3,1
				c0.8-0.2,1.9,0,1.9-0.8c0-0.3-0.4-0.5-0.4-0.8c0,0,0.2,0,0.4,0c0.2,0,0.2-0.2,0.2-0.3c0-0.1,0-0.2,0-0.2c0-0.2-0.9-0.9,0.1-1
				c0.1,0,0.3,0.1,0.3,0.1c0-0.6-0.8-1.6-0.8-2.2c0-0.2,0.1-0.2-0.1,0C26.7,39.1,26.6,39.4,26.4,39.3z"/>
			<path fill="none" stroke="#201F22" stroke-width="0.212" stroke-miterlimit="2.613" d="M25.2,44.2c1-0.1,1.7-0.2,1.9-0.5
				c0.4-0.8-2-0.3-2-0.5c0-1.1,2.2-0.3,2.3-0.7c0.1-0.9-1.9-0.3-1.8-0.6c0.1-1.1,2.4-0.7,2.1-0.6"/>
			<path fill-rule="evenodd" clip-rule="evenodd" fill="#C01722" d="M27.9,39.4c0,0.3,0.6,1.2,0.9,2.2c0,0.1,0.1,0.2,0,0.3
				c-0.4,0.5,0.3,0.8,0.3,1c-0.1,0.1,0.1,0.1,0.1,0.2c0.1,0.3-0.2,0.2-0.5,0.2c-0.3,0,0.4,1,0.3,1c-0.8-0.2-1.9,0-1.9-0.8
				c0-0.3,0.4-0.5,0.4-0.8c0,0-0.2,0-0.4,0c-0.2,0-0.2-0.2-0.2-0.3c0-0.1,0-0.1,0-0.2c0-0.2,0.9-0.9-0.1-1c-0.1,0-0.3,0.1-0.3,0.1
				c0-0.6,0.8-1.6,0.8-2.2c0-0.2-0.1-0.2,0.1,0C27.5,39.1,27.7,39.4,27.9,39.4"/>
			<path fill="none" stroke="#201F22" stroke-width="9.000000e-002" stroke-miterlimit="2.613" d="M27.9,39.4c0,0.3,0.6,1.2,0.9,2.2
				c0,0.1,0.1,0.2,0,0.3c-0.4,0.5,0.3,0.8,0.3,1c-0.1,0.1,0.1,0.1,0.1,0.2c0.1,0.3-0.2,0.2-0.5,0.2c-0.3,0,0.4,1,0.3,1
				c-0.8-0.2-1.9,0-1.9-0.8c0-0.3,0.4-0.5,0.4-0.8c0,0-0.2,0-0.4,0c-0.2,0-0.2-0.2-0.2-0.3c0-0.1,0-0.1,0-0.2c0-0.2,0.9-0.9-0.1-1
				c-0.1,0-0.3,0.1-0.3,0.1c0-0.6,0.8-1.6,0.8-2.2c0-0.2-0.1-0.2,0.1,0C27.5,39.1,27.7,39.4,27.9,39.4z"/>
			<path fill="none" stroke="#201F22" stroke-width="0.212" stroke-miterlimit="2.613" d="M29.1,44.3c-1-0.1-1.7-0.2-1.9-0.5
				c-0.3-0.8,2-0.3,2-0.5c0-1.1-2.2-0.3-2.3-0.7c-0.1-0.9,1.9-0.3,1.8-0.6c-0.1-1.1-2.4-0.7-2.1-0.6"/>
			<path fill-rule="evenodd" clip-rule="evenodd" fill="#201F22" d="M27.1,40.8c-0.4-0.4-0.8-0.8-1.5-0.9c-1.6-0.2-3.1,0-4.6-0.6
				c-1-0.4-3.3-1.9-3.1-4.7c0.3-3.2,1.6-4.2,1.7-7.7c-0.1-1.2-0.6-2.7-1.5-3.5c0.9-1,2-2.4,2.9-3.5c1.8,1.5,4.3,1.1,6,0
				c1.8,1,4.2,1.5,6,0c0.9,1,2,2.4,2.9,3.4c-1,0.9-1.4,2.3-1.5,3.5c0.1,3.5,1.4,4.5,1.7,7.7c0.3,2.7-2.1,4.2-3,4.7
				c-1.5,0.7-3,0.4-4.6,0.6C27.9,40,27.5,40.5,27.1,40.8"/>
			<path fill="none" stroke="#201F22" stroke-width="9.000000e-002" stroke-miterlimit="2.613" d="M27.1,40.8
				c-0.4-0.4-0.8-0.8-1.5-0.9c-1.6-0.2-3.1,0-4.6-0.6c-1-0.4-3.3-1.9-3.1-4.7c0.3-3.2,1.6-4.2,1.7-7.7c-0.1-1.2-0.6-2.7-1.5-3.5
				c0.9-1,2-2.4,2.9-3.5c1.8,1.5,4.3,1.1,6,0c1.8,1,4.2,1.5,6,0c0.9,1,2,2.4,2.9,3.4c-1,0.9-1.4,2.3-1.5,3.5
				c0.1,3.5,1.4,4.5,1.7,7.7c0.3,2.7-2.1,4.2-3,4.7c-1.5,0.7-3,0.4-4.6,0.6C27.9,40,27.5,40.5,27.1,40.8z"/>
			<path fill-rule="evenodd" clip-rule="evenodd" fill="#FFFFFF" d="M27.5,30v-9c1.7,0.8,3.5,1.1,5.4,0c0.9,1,1.4,1.5,2.3,2.4
				c-0.8,0.8-1.2,2.4-1.2,3.7c0,1.2,0.3,2,0.5,2.8H27.5z"/>
			<path fill-rule="evenodd" clip-rule="evenodd" fill="#9ACDED" d="M20,30c0.3-0.8,0.5-1.7,0.5-2.9c0-1.1-0.4-3-1.3-3.8
				c0.9-1,1.3-1.5,2.1-2.4c1.6,1.3,3.9,0.9,5.5,0V30H20z"/>
			<path fill-rule="evenodd" clip-rule="evenodd" fill="#FFEB13" d="M27.1,40.6c-0.4-0.4-0.8-0.8-1.5-0.8c-1.6-0.2-3.1,0-4.6-0.6
				c-1-0.4-3.3-1.9-3-4.6c0.3-3.2,1.6-4.1,1.7-7.7c-0.1-1.2-0.5-2.7-1.4-3.6c0.9-1,1.9-2.2,2.8-3.2c1.8,1.5,4.3,1,6,0
				c1.7,1,4.2,1.6,6,0.1c0.9,1,1.9,2.2,2.8,3.2c-1,0.9-1.3,2.4-1.5,3.6c0.1,3.5,1.4,4.5,1.7,7.7c0.2,2.7-2.1,4.2-3,4.6
				c-1.5,0.7-3,0.4-4.6,0.6C27.9,39.9,27.5,40.3,27.1,40.6 M19.8,30.1h7.2v-9.5c-1.7,0.9-4,1.4-5.7,0c-0.9,1-1.5,1.7-2.4,2.7
				c0.9,0.8,1.4,2.7,1.4,3.8C20.3,28.4,20,29.3,19.8,30.1 M27.4,30.1h7.3c-0.3-0.8-0.6-1.8-0.5-3c0-1.1,0.3-2.8,1.3-3.7
				c-0.9-1-1.6-1.8-2.5-2.7c-1.7,1.2-3.9,0.9-5.6,0V30.1z M34.8,30.5H19.6c-0.4,1.2-1,2.2-1.1,3.9c-0.2,2.6,2,4,2.9,4.4
				c1.4,0.6,2.9,0.4,4.4,0.6c0.7,0,1.1,0.5,1.4,0.8c0.3-0.3,0.7-0.8,1.4-0.8c1.5-0.2,3,0,4.4-0.6c0.9-0.4,3.1-1.8,2.9-4.4
				C35.6,32.7,35.2,31.6,34.8,30.5"/>
			<path fill-rule="evenodd" clip-rule="evenodd" fill="#C01722" d="M27.1,40c-0.3-0.3-0.7-0.7-1.4-0.8c-1.5-0.2-2.9,0-4.3-0.6
				c-0.9-0.4-3-1.8-2.8-4.3c0.1-1.6,0.7-2.6,1.1-3.7c5,0,9.9,0,14.9,0c0.4,1.1,0.8,2.1,0.9,3.7c0.2,2.5-1.9,3.9-2.8,4.3
				c-1.4,0.6-2.8,0.4-4.3,0.6C27.9,39.3,27.5,39.7,27.1,40"/>
			<path fill-rule="evenodd" clip-rule="evenodd" fill="#201F22" d="M28.3,31.7c0.4,0.1,0.8,0.3,0.8,0.6c0.4,0.1,0.6,0.3,0.7,0.7
				c0.3,0.2,0.5,0.2,0.5,0.4c0.2,0,0.3,0.1,0.4,0.3c0.2,0,0.4,0.1,0.6,0.4c0.1,0,0.3-0.1,0.5,0.1c0.2,0,0.3-0.1,0.5,0
				c0.1,0,0.2,0,0.2,0c0.1-0.2,0.3-0.2,0.4-0.2c0-0.1,0-0.2,0.1-0.3c-0.1-0.1-0.1-0.3,0-0.5c-0.1-0.1-0.1-0.2,0-0.4
				c-0.1-0.1-0.1-0.2-0.1-0.3c-0.1,0-0.2-0.1-0.2-0.3c-0.2,0-0.3-0.1-0.4-0.2c-0.1,0.1-0.2,0.1-0.2,0c-0.1,0.1-0.2,0.1-0.3,0.1
				c-0.1,0.1-0.2,0.2-0.3,0.3c0,0.1,0,0.1,0,0.2c0.2-0.1,0.4,0.2,0.3,0.4c-0.1,0.2-0.4,0.3-0.5,0c-0.1,0-0.3-0.1-0.3-0.3
				c-0.1-0.2-0.1-0.2,0-0.4c-0.1-0.2,0-0.4,0.2-0.5c0.1-0.2,0.2-0.3,0.4-0.3c0.1-0.1,0.1-0.3,0.4-0.2c0.2-0.1,0.4-0.1,0.6,0
				c0.2,0,0.4,0,0.5,0.2c0.2,0.1,0.3,0.1,0.4,0.4c0.2,0.1,0.4,0.2,0.3,0.5c0.2,0.2,0.3,0.4,0.3,0.6c0.1,0.2,0.1,0.4,0,0.6
				c0.1,0.2,0,0.4,0,0.6c0.1,0.3-0.1,0.5-0.3,0.7c-0.1,0.4-0.3,0.5-0.6,0.6c-0.2,0.4-0.5,0.6-0.8,0.5c-0.2,0.2-0.5,0.3-0.7,0.3
				c-0.3,0.2-0.7,0.3-0.9,0.1c-0.4,0.2-0.8,0.2-1.1,0c-0.5,0.1-0.8,0-1-0.3c-0.4,0.1-0.6-0.1-0.7-0.3c-0.5,0.2-0.9,0.2-1.1,0
				c-0.1,0.1-0.2,0.1-0.2,0.1c0.3,0.4,0.2,0.6,0.1,0.9c0.3,0,0.5,0,0.7,0.2c0.3-0.2,0.7-0.3,1,0.2c0.7-0.3,1-0.1,1.1,0.5
				c0.1-0.1,0.3-0.2,0.5-0.1c0.3-0.5,0.7-0.3,0.9,0.1c0.2,0.4-0.2,0.9-0.8,0.8c-0.2,0.2-0.4,0.2-0.7,0.1c-0.4,0.1-0.6,0-0.9-0.1
				c-0.3,0.3-0.6,0.3-0.8,0.2c-0.4,0.8-0.8,0.5-1.3,0.2c-0.3,0.2-0.6,0-0.8-0.2c-0.1,0.2-0.3,0.3-0.5,0.3C25.1,39,25,39,25,38.9
				c-0.4,0.3-0.7,0.1-1-0.1c-0.4,0.1-0.6-0.1-0.7-0.4c-0.1,0-0.2,0.1-0.4,0c-0.5,0.5-1.1,0.2-1.2-0.5c-0.3,0-0.5,0-0.7-0.5
				c0-0.1,0-0.2,0.1-0.4c-0.3-0.2-0.4-0.4-0.3-0.8c-0.3-0.2-0.5-0.5-0.2-0.9c-0.2-0.5-0.3-0.9,0.2-1.4c0.3-0.3,0.6-0.5,0.9-0.6
				c0-0.4,0.2-0.7,0.8-0.8c0.1-0.5,0.4-0.8,0.9-0.8c0.2-0.3,0.5-0.5,1.1-0.4c0.2-0.3,0.5-0.4,1.3-0.1c0.4-0.3,0.8-0.2,1.3,0.1
				C27.3,31.1,28,31.4,28.3,31.7"/>
			<path fill-rule="evenodd" clip-rule="evenodd" fill="#F0CA02" d="M31.7,32.9c0,0.1-0.1,0.2-0.2,0.2c0,0.1,0.2,0.3,0.3,0.1
				C32,33,31.9,32.8,31.7,32.9 M31.6,31.8c-0.1,0-0.2,0.1-0.2,0.3c0.1,0.2,0.2,0.2,0.4,0.1C31.7,32.2,31.6,31.9,31.6,31.8
				 M31.6,32.4c-0.1,0-0.2-0.1-0.3-0.2c0,0.1-0.1,0.3,0,0.4C31.4,32.6,31.6,32.7,31.6,32.4 M31.6,32.7c-0.1,0-0.3,0-0.4,0
				c0,0.1,0.1,0.4,0.3,0.3C31.7,32.9,31.6,32.8,31.6,32.7 M34.2,33.5c0-0.2-0.2-0.5-0.6-0.4c-0.3,0.1-0.3,0.3-0.3,0.4
				C33.4,33.4,33.9,33.2,34.2,33.5 M34.1,33c0-0.2-0.1-0.4-0.5-0.3c-0.3,0.1-0.4,0.4-0.3,0.4C33.3,33,33.8,32.9,34.1,33 M33.9,32.5
				c0-0.2-0.2-0.4-0.5-0.3c-0.3,0.2-0.2,0.4-0.1,0.5C33.3,32.5,33.6,32.4,33.9,32.5 M33.6,32c-0.1-0.1-0.3-0.3-0.5,0
				c-0.2,0.2,0,0.4,0.1,0.4C33.1,32.3,33.3,32,33.6,32 M33.2,31.7c-0.1-0.1-0.3-0.2-0.5,0.1c-0.2,0.3,0.1,0.5,0.2,0.4
				C32.8,32.1,32.9,31.8,33.2,31.7 M32.6,31.5c-0.1,0-0.4-0.1-0.4,0.2c-0.1,0.3,0.2,0.4,0.3,0.3C32.4,31.9,32.5,31.7,32.6,31.5
				 M32.1,31.6c-0.1,0-0.4,0.1-0.3,0.4c0.1,0.3,0.4,0.2,0.4,0.1C32.1,32,32,31.8,32.1,31.6 M34.2,34c0.1-0.1,0-0.5-0.3-0.5
				c-0.4-0.1-0.4,0.1-0.5,0.2C33.6,33.6,34.1,33.8,34.2,34 M33.9,34.9c0.2-0.1,0.4-0.6,0-0.9c-0.3-0.3-0.6-0.2-0.8,0
				C33.5,34,34.1,34.6,33.9,34.9 M33.4,35.5c0.5-0.2,0.4-0.9,0.1-1.2c-0.3-0.3-0.6-0.2-0.7,0C33.2,34.5,33.5,34.9,33.4,35.5
				 M32.7,35.9c0.6,0.1,0.6-0.7,0.3-1.2c-0.2-0.4-0.4-0.4-0.5-0.3C32.8,34.8,32.9,35.3,32.7,35.9 M32,36.2c0.6,0.1,0.8-0.9,0.5-1.4
				c-0.2-0.4-0.4-0.4-0.5-0.3C32.2,34.9,32.4,35.6,32,36.2 M31.2,36.3c0.8,0.3,1.2-0.9,0.8-1.6c-0.2-0.3-0.4-0.4-0.5-0.3
				C31.6,35,31.6,36,31.2,36.3 M30.1,36.3c0.8,0.5,1.3-0.5,1.3-1.3c0-0.6-0.5-1-0.6-1C31.1,34.9,30.6,36.3,30.1,36.3 M29.3,36.1
				c0.8,0.7,1.4-0.3,1.5-1.2c0-0.6-0.1-1.1-0.4-1.2C30.4,34.6,29.9,35.9,29.3,36.1 M28.3,35.7c0.8,0.7,1.6-0.3,1.8-1.4
				c0.1-0.6,0-0.8-0.3-1.1C29.9,34.1,28.8,35.6,28.3,35.7 M27.3,35.7c1.1,0.7,3.2-2.7,1.7-3.2C29.3,33.5,27.8,35.7,27.3,35.7
				 M26.8,35.6c0.6,0.8,3.2-3.2,1.5-3.7c0.1,0.4-0.2,1.2-0.6,2C27.4,34.6,26.8,35,26.8,35.6 M26.7,35.6c0.1-0.7,1.2-2,1.5-3
				c0.2-0.6,0-1.2-0.9-1.1c0.7,1.2-0.9,2.9-0.7,4C26.5,35.6,26.8,35.5,26.7,35.6 M26.4,35.5c-0.2-0.7,0.6-2,0.8-3
				c0.1-0.6-0.3-1.5-1.2-1.1c0.9,1-0.2,3,0.2,4C26.3,35.5,26.5,35.5,26.4,35.5 M26.1,35.3c-0.3-0.7,0.1-2.1,0.1-3
				c0-0.6-0.7-1.6-1.6-1c1.5,0.8,0.5,2.3,1.2,3.9C26,35.4,26.1,35.3,26.1,35.3 M25.6,35.2c-0.4-0.6-0.2-2-0.4-2.9
				c-0.2-0.6-1.1-1.3-1.7-0.5c1.6,0.4,0.9,2,2,3.3C25.6,35.3,25.7,35.2,25.6,35.2 M25.3,35.2c-0.6-0.5-0.6-1.8-1-2.6
				c-0.4-0.7-1.2-1-1.6,0c1.7,0.4,1.2,1.7,2.1,2.4C24.9,35.2,25.3,35.2,25.3,35.2 M24.4,35c-0.5-0.5-0.3-0.8-0.8-1.6
				c-0.4-0.7-1.6-1.1-1.8-0.1c1.5,0.1,1.4,0.8,2.2,1.4C24.2,34.8,24.4,34.9,24.4,35 M20.7,35.2c0.1,0,0.1,0,0.2,0
				c-0.2-0.4,0.1-0.7,0.5-0.7c0.5,0,1.1,0.3,1.6,0.7c0.4,0.3,0.9,0.7,1.5,0.9c0.5,0.2,1.2,0.2,1.8,0.4c0.3,0.1,0.2,0.3,0.2,0.6
				c0.2-0.1,0.3-0.3,0.4-0.5c0-0.5-0.4-0.9-1.2-1.2c-0.7,0-1.4-0.1-2-0.7c-0.3-0.4-0.6-0.9-1.3-1.1c-0.3-0.1-0.7-0.1-1.2,0.1
				c-0.5,0.3-0.6,0.6-0.6,0.9C20.7,34.8,20.7,35,20.7,35.2"/>
			<path fill-rule="evenodd" clip-rule="evenodd" fill="#F0CA02" d="M23.9,36.2c0.2,0.2,0.3,0.5,0.2,0.7c-0.1,0.2-0.5,0.2-0.7,0
				c-0.2-0.2-0.3-0.5-0.2-0.7C23.4,36,23.7,36,23.9,36.2 M25.1,36.8c0.2,0.2,0.3,0.4,0.1,0.6c-0.1,0.2-0.4,0.2-0.5,0
				c-0.2-0.2-0.3-0.4-0.1-0.6C24.6,36.6,24.9,36.6,25.1,36.8 M26.1,37.1c0.2,0.2,0.3,0.4,0.2,0.6c-0.1,0.2-0.4,0.2-0.6,0
				c-0.2-0.2-0.3-0.4-0.2-0.6C25.6,36.9,25.9,36.9,26.1,37.1 M22.5,35.6c0.3,0,0.5,0.3,0.5,0.5c0,0.3-0.2,0.5-0.5,0.5
				c-0.3,0-0.5-0.3-0.5-0.6C21.9,35.8,22.2,35.6,22.5,35.6 M22.9,37.4c0.2,0,0.4,0.2,0.4,0.4c0,0.2-0.2,0.4-0.4,0.4
				c-0.2,0-0.3-0.1-0.4-0.3c0.1-0.1,0.2-0.2,0.2-0.3c0-0.1,0-0.1,0-0.2C22.8,37.4,22.8,37.4,22.9,37.4 M21.7,37.2
				c-0.1,0.1-0.2,0.2-0.2,0.3c0,0.1,0,0.2,0.1,0.2c0,0,0,0,0,0c-0.2,0-0.5-0.2-0.5-0.5c0-0.1,0-0.2,0.1-0.3c0.1,0.1,0.2,0.1,0.2,0.1
				c0,0,0.1,0,0.1,0C21.6,37.1,21.7,37.2,21.7,37.2 M21.6,36.3c-0.1,0.1-0.2,0.2-0.2,0.3c0,0.1,0.1,0.3,0.2,0.4c0,0-0.1,0-0.1,0
				c-0.3,0-0.5-0.3-0.5-0.6c0-0.1,0-0.1,0-0.2c0,0,0.1,0,0.1,0c0.1,0,0.2,0,0.3-0.1C21.5,36.2,21.5,36.2,21.6,36.3 M22.6,37.7
				C22.6,37.7,22.7,37.7,22.6,37.7c0,0.1-0.1,0.2-0.2,0.3C22.6,37.9,22.6,37.8,22.6,37.7 M22.7,38.3c-0.1,0.1-0.2,0.2-0.4,0.2
				c-0.3,0-0.5-0.3-0.5-0.5c0,0,0,0,0-0.1c0.1,0.1,0.2,0.2,0.4,0.2c0.1,0,0.2,0,0.2-0.1C22.5,38.1,22.6,38.2,22.7,38.3 M23,36.3
				c0.1,0,0.2,0,0.2,0.1c-0.1,0.2,0,0.4,0.1,0.6c-0.1,0.1-0.2,0.2-0.4,0.2c-0.2,0-0.4-0.3-0.5-0.5c0,0,0,0,0,0
				C22.7,36.7,22.9,36.6,23,36.3L23,36.3z M22.4,37.1c0.1,0.1,0.1,0.1,0.2,0.2c0.1,0.2-0.1,0.5-0.3,0.5c-0.2,0.1-0.5-0.1-0.6-0.4
				c0-0.1,0-0.2,0-0.3c0,0,0,0,0,0C22,37.4,22.3,37.3,22.4,37.1 M21.1,35.3c0.1,0,0.1,0,0.2,0.1c-0.1,0.1-0.2,0.2-0.2,0.3
				c0,0.1,0.1,0.3,0.2,0.4c-0.1,0.1-0.2,0.1-0.3,0.1c-0.2,0-0.5-0.3-0.5-0.5C20.6,35.4,20.9,35.3,21.1,35.3 M21.7,35.2
				c0.2,0,0.3,0.2,0.4,0.4c-0.1,0.1-0.2,0.2-0.2,0.3c0,0,0,0.1,0,0.1c-0.1,0-0.1,0.1-0.2,0.1c-0.2,0-0.4-0.2-0.4-0.5
				C21.3,35.4,21.5,35.2,21.7,35.2 M22.4,36.7c0,0.1,0,0.2,0,0.3c-0.1,0.2-0.4,0.2-0.6,0c-0.2-0.2-0.3-0.4-0.2-0.6
				c0.1-0.1,0.2-0.1,0.3-0.1C22,36.5,22.2,36.7,22.4,36.7L22.4,36.7z M28.4,37.3c0.1,0.2-0.1,0.4-0.3,0.5c-0.2,0-0.5-0.1-0.5-0.3
				c-0.1-0.2,0.1-0.4,0.3-0.5C28.2,37,28.4,37.1,28.4,37.3 M29.5,37.5c0.1,0.2-0.1,0.4-0.3,0.5c-0.2,0-0.4-0.1-0.5-0.3
				c-0.1-0.2,0.1-0.4,0.3-0.5C29.2,37.1,29.5,37.3,29.5,37.5 M24,38.3c0,0.1,0,0.1,0,0.2c-0.1,0.1-0.3,0.1-0.5,0
				c-0.2-0.1-0.2-0.3-0.1-0.5c0,0,0.1-0.1,0.2-0.1c0,0.1,0,0.1,0,0.2c0,0.2,0.2,0.3,0.4,0.3C23.9,38.4,24,38.4,24,38.3 M24.3,38.1
				c0,0.1-0.1,0.2-0.2,0.2c-0.2,0.1-0.4-0.1-0.5-0.3c0-0.1,0-0.2,0-0.3c0.1,0,0.2,0,0.3,0c0.1,0,0.2-0.1,0.2-0.2c0,0.1,0,0.2,0,0.3
				C24.1,37.9,24.2,38,24.3,38.1 M24.2,37.1c0.1,0.2-0.1,0.4-0.3,0.4c-0.2,0-0.5-0.1-0.6-0.3c0-0.1,0-0.1,0-0.2c0,0,0.1,0,0.1,0.1
				C23.7,37.3,24,37.3,24.2,37.1C24.2,37.1,24.2,37,24.2,37.1C24.2,37,24.2,37.1,24.2,37.1 M27.5,37.6c-0.1,0.1-0.2,0.1-0.3,0.2
				c-0.2,0-0.5-0.1-0.6-0.4c-0.1-0.2,0.1-0.5,0.3-0.5c0.2,0,0.4,0.1,0.5,0.2c-0.1,0.1-0.1,0.2-0.1,0.3
				C27.4,37.5,27.4,37.6,27.5,37.6 M28.2,38c0.1,0.2-0.1,0.4-0.3,0.5c-0.2,0-0.5-0.1-0.5-0.3c0-0.2,0-0.4,0.2-0.5
				C27.7,37.9,27.9,38,28.2,38 M27.8,38.6c0,0.2-0.1,0.4-0.4,0.4c-0.3,0-0.5-0.1-0.6-0.3c-0.1-0.2,0.1-0.4,0.3-0.5
				C27.3,38.4,27.6,38.6,27.8,38.6 M28.8,38.1c0,0.2-0.1,0.4-0.3,0.4c-0.1,0-0.3,0-0.4-0.1c0.1-0.1,0.2-0.3,0.1-0.4c0,0,0-0.1,0-0.1
				c0,0,0.1,0,0.1,0c0.1,0,0.1,0,0.2,0C28.6,37.9,28.7,38,28.8,38.1C28.8,38.1,28.8,38.1,28.8,38.1 M29.8,38
				c0.1,0.2-0.1,0.4-0.3,0.5c-0.2,0-0.5-0.1-0.5-0.3c0,0,0,0,0-0.1c0.1,0,0.2,0,0.3,0c0.2,0,0.4-0.2,0.4-0.3
				C29.7,37.8,29.8,37.9,29.8,38 M30.4,38c0.1,0.2-0.1,0.4-0.3,0.5c-0.1,0-0.2,0-0.3-0.1C30,38.3,30,38.2,30,38
				c0-0.1-0.1-0.2-0.2-0.3c0,0,0.1,0,0.1,0C30.2,37.7,30.4,37.8,30.4,38 M31.1,37.8c0.1,0.2-0.1,0.4-0.3,0.5c-0.1,0-0.1,0-0.2,0
				c0-0.1,0-0.2,0-0.2c0-0.2-0.2-0.3-0.3-0.4c0.1-0.1,0.1-0.2,0.3-0.2C30.8,37.5,31,37.6,31.1,37.8 M26,38.2
				c-0.2,0.2-0.4,0.3-0.6,0.2c-0.2-0.1-0.2-0.3-0.1-0.5c0-0.1,0.1-0.1,0.2-0.2c0.1,0.2,0.4,0.3,0.6,0.2c0,0,0,0,0,0
				C26.1,38,26,38.1,26,38.2 M25.1,37.6c0,0.1,0,0.3,0,0.4c-0.1,0.2-0.4,0.2-0.6,0c-0.1-0.1-0.2-0.3-0.2-0.5
				c0.1-0.1,0.1-0.2,0.1-0.2c0,0,0,0,0,0c0.1,0.3,0.3,0.5,0.6,0.4C25.1,37.7,25.1,37.7,25.1,37.6 M25.9,38.6
				c-0.2,0.2-0.4,0.3-0.6,0.2c-0.2-0.1-0.2-0.3-0.1-0.4c0.1,0.1,0.3,0.2,0.5,0.1c0.2,0,0.3-0.1,0.4-0.2C26,38.4,26,38.5,25.9,38.6
				 M25,38.3c0,0.2-0.1,0.5-0.4,0.5c-0.2,0.1-0.5-0.1-0.5-0.3c0-0.1,0-0.1,0-0.2c0.1,0,0.3-0.1,0.3-0.2c0.1,0.1,0.3,0.1,0.4,0.1
				c0,0,0.1,0,0.1,0C25,38.3,25,38.3,25,38.3 M26.9,38.8C26.8,38.8,26.8,38.8,26.9,38.8c-0.2,0.2-0.5,0.2-0.7,0
				c-0.2-0.2-0.1-0.4,0-0.5c0.2,0.1,0.4,0.2,0.6,0.1c-0.1,0.1-0.1,0.2,0,0.3C26.8,38.7,26.8,38.7,26.9,38.8 M27.2,37.9
				c0,0.2-0.2,0.3-0.5,0.3c-0.3,0-0.5-0.1-0.5-0.3c0,0,0,0,0,0c0.1-0.1,0.2-0.2,0.3-0.3c0,0,0,0,0,0C26.6,37.7,26.9,37.9,27.2,37.9
				C27.2,37.9,27.2,37.9,27.2,37.9"/>
			<path fill="none" stroke="#201F22" stroke-width="9.000000e-002" stroke-miterlimit="2.613" d="M23.9,36.2
				c0.2,0.2,0.3,0.5,0.2,0.7c-0.1,0.2-0.5,0.2-0.7,0c-0.2-0.2-0.3-0.5-0.2-0.7C23.4,36,23.7,36,23.9,36.2z M25.1,36.8
				c0.2,0.2,0.3,0.4,0.1,0.6c-0.1,0.2-0.4,0.2-0.5,0c-0.2-0.2-0.3-0.4-0.1-0.6C24.6,36.6,24.9,36.6,25.1,36.8z M26.1,37.1
				c0.2,0.2,0.3,0.4,0.2,0.6c-0.1,0.2-0.4,0.2-0.6,0c-0.2-0.2-0.3-0.4-0.2-0.6C25.6,36.9,25.9,36.9,26.1,37.1z M22.5,35.6
				c0.3,0,0.5,0.3,0.5,0.5c0,0.3-0.2,0.5-0.5,0.5c-0.3,0-0.5-0.3-0.5-0.6C21.9,35.8,22.2,35.6,22.5,35.6z M22.9,37.4
				c0.2,0,0.4,0.2,0.4,0.4c0,0.2-0.2,0.4-0.4,0.4c-0.2,0-0.3-0.1-0.4-0.3c0.1-0.1,0.2-0.2,0.2-0.3c0-0.1,0-0.1,0-0.2
				C22.8,37.4,22.8,37.4,22.9,37.4z M21.7,37.2c-0.1,0.1-0.2,0.2-0.2,0.3c0,0.1,0,0.2,0.1,0.2c0,0,0,0,0,0c-0.2,0-0.5-0.2-0.5-0.5
				c0-0.1,0-0.2,0.1-0.3c0.1,0.1,0.2,0.1,0.2,0.1c0,0,0.1,0,0.1,0C21.6,37.1,21.7,37.2,21.7,37.2z M21.6,36.3
				c-0.1,0.1-0.2,0.2-0.2,0.3c0,0.1,0.1,0.3,0.2,0.4c0,0-0.1,0-0.1,0c-0.3,0-0.5-0.3-0.5-0.6c0-0.1,0-0.1,0-0.2c0,0,0.1,0,0.1,0
				c0.1,0,0.2,0,0.3-0.1C21.5,36.2,21.5,36.2,21.6,36.3z M22.6,37.7C22.6,37.7,22.7,37.7,22.6,37.7c0,0.1-0.1,0.2-0.2,0.3
				C22.6,37.9,22.6,37.8,22.6,37.7z M22.7,38.3c-0.1,0.1-0.2,0.2-0.4,0.2c-0.3,0-0.5-0.3-0.5-0.5c0,0,0,0,0-0.1
				c0.1,0.1,0.2,0.2,0.4,0.2c0.1,0,0.2,0,0.2-0.1C22.5,38.1,22.6,38.2,22.7,38.3z M23,36.3c0.1,0,0.2,0,0.2,0.1
				c-0.1,0.2,0,0.4,0.1,0.6c-0.1,0.1-0.2,0.2-0.4,0.2c-0.2,0-0.4-0.3-0.5-0.5c0,0,0,0,0,0C22.7,36.7,22.9,36.6,23,36.3L23,36.3z
				 M22.4,37.1c0.1,0.1,0.1,0.1,0.2,0.2c0.1,0.2-0.1,0.5-0.3,0.5c-0.2,0.1-0.5-0.1-0.6-0.4c0-0.1,0-0.2,0-0.3c0,0,0,0,0,0
				C22,37.4,22.3,37.3,22.4,37.1z M21.1,35.3c0.1,0,0.1,0,0.2,0.1c-0.1,0.1-0.2,0.2-0.2,0.3c0,0.1,0.1,0.3,0.2,0.4
				c-0.1,0.1-0.2,0.1-0.3,0.1c-0.2,0-0.5-0.3-0.5-0.5C20.6,35.4,20.9,35.3,21.1,35.3z M21.7,35.2c0.2,0,0.3,0.2,0.4,0.4
				c-0.1,0.1-0.2,0.2-0.2,0.3c0,0,0,0.1,0,0.1c-0.1,0-0.1,0.1-0.2,0.1c-0.2,0-0.4-0.2-0.4-0.5C21.3,35.4,21.5,35.2,21.7,35.2z
				 M22.4,36.7c0,0.1,0,0.2,0,0.3c-0.1,0.2-0.4,0.2-0.6,0c-0.2-0.2-0.3-0.4-0.2-0.6c0.1-0.1,0.2-0.1,0.3-0.1
				C22,36.5,22.2,36.7,22.4,36.7L22.4,36.7z M28.4,37.3c0.1,0.2-0.1,0.4-0.3,0.5c-0.2,0-0.5-0.1-0.5-0.3c-0.1-0.2,0.1-0.4,0.3-0.5
				C28.2,37,28.4,37.1,28.4,37.3z M29.5,37.5c0.1,0.2-0.1,0.4-0.3,0.5c-0.2,0-0.4-0.1-0.5-0.3c-0.1-0.2,0.1-0.4,0.3-0.5
				C29.2,37.1,29.5,37.3,29.5,37.5z M24,38.3c0,0.1,0,0.1,0,0.2c-0.1,0.1-0.3,0.1-0.5,0c-0.2-0.1-0.2-0.3-0.1-0.5
				c0,0,0.1-0.1,0.2-0.1c0,0.1,0,0.1,0,0.2c0,0.2,0.2,0.3,0.4,0.3C23.9,38.4,24,38.4,24,38.3z M24.3,38.1c0,0.1-0.1,0.2-0.2,0.2
				c-0.2,0.1-0.4-0.1-0.5-0.3c0-0.1,0-0.2,0-0.3c0.1,0,0.2,0,0.3,0c0.1,0,0.2-0.1,0.2-0.2c0,0.1,0,0.2,0,0.3
				C24.1,37.9,24.2,38,24.3,38.1z M24.2,37.1c0.1,0.2-0.1,0.4-0.3,0.4c-0.2,0-0.5-0.1-0.6-0.3c0-0.1,0-0.1,0-0.2c0,0,0.1,0,0.1,0.1
				C23.7,37.3,24,37.3,24.2,37.1C24.2,37.1,24.2,37,24.2,37.1C24.2,37,24.2,37.1,24.2,37.1z M27.5,37.6c-0.1,0.1-0.2,0.1-0.3,0.2
				c-0.2,0-0.5-0.1-0.6-0.4c-0.1-0.2,0.1-0.5,0.3-0.5c0.2,0,0.4,0.1,0.5,0.2c-0.1,0.1-0.1,0.2-0.1,0.3
				C27.4,37.5,27.4,37.6,27.5,37.6z M28.2,38c0.1,0.2-0.1,0.4-0.3,0.5c-0.2,0-0.5-0.1-0.5-0.3c0-0.2,0-0.4,0.2-0.5
				C27.7,37.9,27.9,38,28.2,38z M27.8,38.6c0,0.2-0.1,0.4-0.4,0.4c-0.3,0-0.5-0.1-0.6-0.3c-0.1-0.2,0.1-0.4,0.3-0.5
				C27.3,38.4,27.6,38.6,27.8,38.6z M28.8,38.1c0,0.2-0.1,0.4-0.3,0.4c-0.1,0-0.3,0-0.4-0.1c0.1-0.1,0.2-0.3,0.1-0.4
				c0,0,0-0.1,0-0.1c0,0,0.1,0,0.1,0c0.1,0,0.1,0,0.2,0C28.6,37.9,28.7,38,28.8,38.1C28.8,38.1,28.8,38.1,28.8,38.1z M29.8,38
				c0.1,0.2-0.1,0.4-0.3,0.5c-0.2,0-0.5-0.1-0.5-0.3c0,0,0,0,0-0.1c0.1,0,0.2,0,0.3,0c0.2,0,0.4-0.2,0.4-0.3
				C29.7,37.8,29.8,37.9,29.8,38z M30.4,38c0.1,0.2-0.1,0.4-0.3,0.5c-0.1,0-0.2,0-0.3-0.1C30,38.3,30,38.2,30,38
				c0-0.1-0.1-0.2-0.2-0.3c0,0,0.1,0,0.1,0C30.2,37.7,30.4,37.8,30.4,38z M31.1,37.8c0.1,0.2-0.1,0.4-0.3,0.5c-0.1,0-0.1,0-0.2,0
				c0-0.1,0-0.2,0-0.2c0-0.2-0.2-0.3-0.3-0.4c0.1-0.1,0.1-0.2,0.3-0.2C30.8,37.5,31,37.6,31.1,37.8z M26,38.2
				c-0.2,0.2-0.4,0.3-0.6,0.2c-0.2-0.1-0.2-0.3-0.1-0.5c0-0.1,0.1-0.1,0.2-0.2c0.1,0.2,0.4,0.3,0.6,0.2c0,0,0,0,0,0
				C26.1,38,26,38.1,26,38.2z M25.1,37.6c0,0.1,0,0.3,0,0.4c-0.1,0.2-0.4,0.2-0.6,0c-0.1-0.1-0.2-0.3-0.2-0.5
				c0.1-0.1,0.1-0.2,0.1-0.2c0,0,0,0,0,0c0.1,0.3,0.3,0.5,0.6,0.4C25.1,37.7,25.1,37.7,25.1,37.6z M25.9,38.6
				c-0.2,0.2-0.4,0.3-0.6,0.2c-0.2-0.1-0.2-0.3-0.1-0.4c0.1,0.1,0.3,0.2,0.5,0.1c0.2,0,0.3-0.1,0.4-0.2C26,38.4,26,38.5,25.9,38.6z
				 M25,38.3c0,0.2-0.1,0.5-0.4,0.5c-0.2,0.1-0.5-0.1-0.5-0.3c0-0.1,0-0.1,0-0.2c0.1,0,0.3-0.1,0.3-0.2c0.1,0.1,0.3,0.1,0.4,0.1
				c0,0,0.1,0,0.1,0C25,38.3,25,38.3,25,38.3z M26.9,38.8C26.8,38.8,26.8,38.8,26.9,38.8c-0.2,0.2-0.5,0.2-0.7,0
				c-0.2-0.2-0.1-0.4,0-0.5c0.2,0.1,0.4,0.2,0.6,0.1c-0.1,0.1-0.1,0.2,0,0.3C26.8,38.7,26.8,38.7,26.9,38.8z M27.2,37.9
				c0,0.2-0.2,0.3-0.5,0.3c-0.3,0-0.5-0.1-0.5-0.3c0,0,0,0,0,0c0.1-0.1,0.2-0.2,0.3-0.3c0,0,0,0,0,0C26.6,37.7,26.9,37.9,27.2,37.9
				C27.2,37.9,27.2,37.9,27.2,37.9z"/>
			<path fill-rule="evenodd" clip-rule="evenodd" fill="#B46E3B" d="M30.8,25.6c-0.2-0.9-0.4-1.5-0.7-2c-0.2-0.2-0.5-0.5-0.7-0.7
				c0.3,0.2,0.6,0.4,0.9,0.6c0.3,0.5,0.5,1,0.7,1.7c0.1-0.1,0.2,0,0.3-0.1c0.5-0.2,1-1,1.5-1.5c-0.1,0.2-0.3,0.6-0.4,0.8
				c-0.9,0.9-1.3,1-1.3,1.3c0,0.1-0.1,0.2-0.1,0.3c0.2-0.2,0.7-0.7,0.9-0.9c-0.2,0.3-0.7,0.9-0.7,1.1c-0.2,0.2-0.1,0.4,0,0.6
				c0.7-0.2,1.4-0.8,2.2-1.4c-0.7,0.9-1.4,1-2.2,1.8c0,0.3-0.1,0.7-0.1,1c0,0.3,0.1,0.6,0.1,0.9c0.2,0.1,0.3,0.1,0.4,0.3
				c0.5,0.1,1.9,0.1,2.3,0.4l-5.9,0c0.3-0.2,1.7-0.3,2.1-0.3c0.1-0.2,0.3-0.3,0.6-0.5c0-0.5,0.1-1,0.1-1.5c0-0.2-0.1-0.4-0.3-0.6
				c-0.6-0.4-1.1-1.1-1.4-1.6c0.6,0.6,1.3,1.3,1.8,1.6c0-0.1,0-0.2,0.1-0.3v-0.7c-0.4-0.4-0.9-0.7-1.2-1.3c0,0-0.5-0.6-0.5-0.6
				c0.4,0.4,1.3,1.4,1.7,1.6c0,0,0-0.1,0-0.2c0-0.1-0.1-0.1-0.1-0.2C30.7,25.6,30.7,25.6,30.8,25.6"/>
			<path fill="none" stroke="#80725D" stroke-width="0.208" stroke-miterlimit="2.613" d="M30.8,25.6c-0.2-0.9-0.4-1.5-0.7-2
				c-0.2-0.2-0.5-0.5-0.7-0.7c0.3,0.2,0.6,0.4,0.9,0.6c0.3,0.5,0.5,1,0.7,1.7c0.1-0.1,0.2,0,0.3-0.1c0.5-0.2,1-1,1.5-1.5
				c-0.1,0.2-0.3,0.6-0.4,0.8c-0.9,0.9-1.3,1-1.3,1.3c0,0.1-0.1,0.2-0.1,0.3c0.2-0.2,0.7-0.7,0.9-0.9c-0.2,0.3-0.7,0.9-0.7,1.1
				c-0.2,0.2-0.1,0.4,0,0.6c0.7-0.2,1.4-0.8,2.2-1.4c-0.7,0.9-1.4,1-2.2,1.8c0,0.3-0.1,0.7-0.1,1c0,0.3,0.1,0.6,0.1,0.9
				c0.2,0.1,0.3,0.1,0.4,0.3c0.5,0.1,1.9,0.1,2.3,0.4l-5.9,0c0.3-0.2,1.7-0.3,2.1-0.3c0.1-0.2,0.3-0.3,0.6-0.5c0-0.5,0.1-1,0.1-1.5
				c0-0.2-0.1-0.4-0.3-0.6c-0.6-0.4-1.1-1.1-1.4-1.6c0.6,0.6,1.3,1.3,1.8,1.6c0-0.1,0-0.2,0.1-0.3v-0.7c-0.4-0.4-0.9-0.7-1.2-1.3
				c0,0-0.5-0.6-0.5-0.6c0.4,0.4,1.3,1.4,1.7,1.6c0,0,0-0.1,0-0.2c0-0.1-0.1-0.1-0.1-0.2C30.7,25.6,30.7,25.6,30.8,25.6z"/>
			<path fill-rule="evenodd" clip-rule="evenodd" fill="#528645" d="M33.1,25.5c0.2-0.8,0.5-0.7,0.9-1
				C33.7,25.3,33.4,25.5,33.1,25.5"/>
			<path fill="none" stroke="#158F40" stroke-width="9.000000e-002" stroke-miterlimit="2.613" d="M33.1,25.5c0.2-0.8,0.5-0.7,0.9-1
				C33.7,25.3,33.4,25.5,33.1,25.5z"/>
			<path fill-rule="evenodd" clip-rule="evenodd" fill="#528645" d="M31.1,27.3c0.8-0.4,1,0.2,1.4,0.2C32,27.9,31.4,27.3,31.1,27.3"
				/>
			<path fill="none" stroke="#158F40" stroke-width="9.000000e-002" stroke-miterlimit="2.613" d="M31.1,27.3c0.8-0.4,1,0.2,1.4,0.2
				C32,27.9,31.4,27.3,31.1,27.3z"/>
			<path fill-rule="evenodd" clip-rule="evenodd" fill="#528645" d="M31.7,23.2c-0.4-1,0.4-1,0.4-1.5C32.5,22.4,31.8,22.9,31.7,23.2
				"/>
			<path fill="none" stroke="#158F40" stroke-width="9.000000e-002" stroke-miterlimit="2.613" d="M31.7,23.2c-0.4-1,0.4-1,0.4-1.5
				C32.5,22.4,31.8,22.9,31.7,23.2z"/>
			<path fill-rule="evenodd" clip-rule="evenodd" fill="#528645" d="M30.3,26.9c-0.4-0.5-0.2-0.6-0.1-1
				C30.6,26.4,30.6,26.7,30.3,26.9"/>
			<path fill="none" stroke="#158F40" stroke-width="9.000000e-002" stroke-miterlimit="2.613" d="M30.3,26.9
				c-0.4-0.5-0.2-0.6-0.1-1C30.6,26.4,30.6,26.7,30.3,26.9z"/>
			<path fill-rule="evenodd" clip-rule="evenodd" fill="#528645" d="M29.4,26.1c-0.7-0.6-0.1-0.9-0.2-1.2
				C29.7,25.1,29.3,25.8,29.4,26.1"/>
			<path fill="none" stroke="#158F40" stroke-width="9.000000e-002" stroke-miterlimit="2.613" d="M29.4,26.1
				c-0.7-0.6-0.1-0.9-0.2-1.2C29.7,25.1,29.3,25.8,29.4,26.1z"/>
			<path fill-rule="evenodd" clip-rule="evenodd" fill="#528645" d="M30,26.6c-0.7-0.6-0.2-1-0.4-1.3C30.1,25.6,29.9,26.3,30,26.6"
				/>
			<path fill="none" stroke="#158F40" stroke-width="9.000000e-002" stroke-miterlimit="2.613" d="M30,26.6c-0.7-0.6-0.2-1-0.4-1.3
				C30.1,25.6,29.9,26.3,30,26.6z"/>
			<path fill-rule="evenodd" clip-rule="evenodd" fill="#528645" d="M32.7,23.6c-0.1-1,0.5-1.2,0.9-1.6
				C33.6,22.9,33.1,23.5,32.7,23.6"/>
			<path fill="none" stroke="#158F40" stroke-width="9.000000e-002" stroke-miterlimit="2.613" d="M32.7,23.6
				c-0.1-1,0.5-1.2,0.9-1.6C33.6,22.9,33.1,23.5,32.7,23.6z"/>
			<path fill-rule="evenodd" clip-rule="evenodd" fill="#528645" d="M31.6,26.9c0.8-0.5,1,0.1,1.4,0.1
				C32.5,27.4,31.9,26.9,31.6,26.9"/>
			<path fill="none" stroke="#158F40" stroke-width="9.000000e-002" stroke-miterlimit="2.613" d="M31.6,26.9c0.8-0.5,1,0.1,1.4,0.1
				C32.5,27.4,31.9,26.9,31.6,26.9z"/>
			<path fill-rule="evenodd" clip-rule="evenodd" fill="#528645" d="M32.2,26.6c0.8-0.4,1,0.3,1.3,0.3C33,27.2,32.5,26.6,32.2,26.6"
				/>
			<path fill="none" stroke="#158F40" stroke-width="9.000000e-002" stroke-miterlimit="2.613" d="M32.2,26.6c0.8-0.4,1,0.3,1.3,0.3
				C33,27.2,32.5,26.6,32.2,26.6z"/>
			<path fill-rule="evenodd" clip-rule="evenodd" fill="#528645" d="M32.6,26.3c0.5-0.6,0.9-0.1,1.2-0.2
				C33.5,26.6,32.9,26.2,32.6,26.3"/>
			<path fill="none" stroke="#158F40" stroke-width="9.000000e-002" stroke-miterlimit="2.613" d="M32.6,26.3
				c0.5-0.6,0.9-0.1,1.2-0.2C33.5,26.6,32.9,26.2,32.6,26.3z"/>
			<path fill-rule="evenodd" clip-rule="evenodd" fill="#528645" d="M33,25.9c0.3-0.7,0.6-0.2,0.8-0.3C33.7,26.1,33.2,25.8,33,25.9"
				/>
			<path fill="none" stroke="#158F40" stroke-width="9.000000e-002" stroke-miterlimit="2.613" d="M33,25.9c0.3-0.7,0.6-0.2,0.8-0.3
				C33.7,26.1,33.2,25.8,33,25.9z"/>
			<path fill-rule="evenodd" clip-rule="evenodd" fill="#528645" d="M30.6,27.3c-0.8-0.4-1,0.2-1.4,0.2
				C29.7,27.9,30.3,27.3,30.6,27.3"/>
			<path fill="none" stroke="#158F40" stroke-width="9.000000e-002" stroke-miterlimit="2.613" d="M30.6,27.3
				c-0.8-0.4-1,0.2-1.4,0.2C29.7,27.9,30.3,27.3,30.6,27.3z"/>
			<path fill-rule="evenodd" clip-rule="evenodd" fill="#528645" d="M30.2,26.9c-0.8-0.5-1,0.1-1.4,0.1
				C29.3,27.4,29.9,26.9,30.2,26.9"/>
			<path fill="none" stroke="#158F40" stroke-width="9.000000e-002" stroke-miterlimit="2.613" d="M30.2,26.9
				c-0.8-0.5-1,0.1-1.4,0.1C29.3,27.4,29.9,26.9,30.2,26.9z"/>
			<path fill-rule="evenodd" clip-rule="evenodd" fill="#528645" d="M29.6,26.6c-0.8-0.4-1,0.3-1.3,0.3
				C28.8,27.2,29.3,26.6,29.6,26.6"/>
			<path fill="none" stroke="#158F40" stroke-width="9.000000e-002" stroke-miterlimit="2.613" d="M29.6,26.6
				c-0.8-0.4-1,0.3-1.3,0.3C28.8,27.2,29.3,26.6,29.6,26.6z"/>
			<path fill-rule="evenodd" clip-rule="evenodd" fill="#528645" d="M29.1,26.3c-0.5-0.6-0.9-0.1-1.2-0.2
				C28.3,26.6,28.9,26.2,29.1,26.3"/>
			<path fill="none" stroke="#158F40" stroke-width="9.000000e-002" stroke-miterlimit="2.613" d="M29.1,26.3
				c-0.5-0.6-0.9-0.1-1.2-0.2C28.3,26.6,28.9,26.2,29.1,26.3z"/>
			<path fill-rule="evenodd" clip-rule="evenodd" fill="#528645" d="M28.7,25.9c-0.3-0.7-0.6-0.2-0.8-0.3
				C28,26.1,28.6,25.8,28.7,25.9"/>
			<path fill="none" stroke="#158F40" stroke-width="9.000000e-002" stroke-miterlimit="2.613" d="M28.7,25.9
				c-0.3-0.7-0.6-0.2-0.8-0.3C28,26.1,28.6,25.8,28.7,25.9z"/>
			<path fill-rule="evenodd" clip-rule="evenodd" fill="#528645" d="M28.8,25.5c-0.2-0.8-0.5-0.7-0.9-1
				C28.2,25.2,28.4,25.5,28.8,25.5"/>
			<path fill="none" stroke="#158F40" stroke-width="9.000000e-002" stroke-miterlimit="2.613" d="M28.8,25.5
				c-0.2-0.8-0.5-0.7-0.9-1C28.2,25.2,28.4,25.5,28.8,25.5z"/>
			<path fill-rule="evenodd" clip-rule="evenodd" fill="#528645" d="M31.4,26.7c0.3-0.4,0.3-0.6,0.3-1
				C31.2,26.1,31.3,26.5,31.4,26.7"/>
			<path fill="none" stroke="#158F40" stroke-width="9.000000e-002" stroke-miterlimit="2.613" d="M31.4,26.7c0.3-0.4,0.3-0.6,0.3-1
				C31.2,26.1,31.3,26.5,31.4,26.7z"/>
			<path fill-rule="evenodd" clip-rule="evenodd" fill="#528645" d="M32.5,25.9c0.8-0.4,0.3-0.9,0.5-1.5
				C32.6,25,32.6,25.6,32.5,25.9"/>
			<path fill="none" stroke="#158F40" stroke-width="9.000000e-002" stroke-miterlimit="2.613" d="M32.5,25.9
				c0.8-0.4,0.3-0.9,0.5-1.5C32.6,25,32.6,25.6,32.5,25.9z"/>
			<path fill-rule="evenodd" clip-rule="evenodd" fill="#528645" d="M31.8,26.4c0.8-0.4,0.4-1,0.6-1.3C32,25.3,32,26.1,31.8,26.4"/>
			<path fill="none" stroke="#158F40" stroke-width="9.000000e-002" stroke-miterlimit="2.613" d="M31.8,26.4c0.8-0.4,0.4-1,0.6-1.3
				C32,25.3,32,26.1,31.8,26.4z"/>
			<path fill-rule="evenodd" clip-rule="evenodd" fill="#528645" d="M29.3,24.8c-0.5-0.6-0.7-0.5-1.1-0.6
				C28.7,24.7,29,24.9,29.3,24.8"/>
			<path fill="none" stroke="#158F40" stroke-width="9.000000e-002" stroke-miterlimit="2.613" d="M29.3,24.8
				c-0.5-0.6-0.7-0.5-1.1-0.6C28.7,24.7,29,24.9,29.3,24.8z"/>
			<path fill-rule="evenodd" clip-rule="evenodd" fill="#528645" d="M29.2,24.5c0-0.9-0.2-1-0.6-1.4C28.6,23.9,28.8,24.3,29.2,24.5"
				/>
			<path fill="none" stroke="#158F40" stroke-width="9.000000e-002" stroke-miterlimit="2.613" d="M29.2,24.5c0-0.9-0.2-1-0.6-1.4
				C28.6,23.9,28.8,24.3,29.2,24.5z"/>
			<path fill-rule="evenodd" clip-rule="evenodd" fill="#528645" d="M29.6,23c0.5-0.7,0.2-0.8,0-1.2C29.2,22.5,29.2,22.8,29.6,23"/>
			<path fill="none" stroke="#158F40" stroke-width="9.000000e-002" stroke-miterlimit="2.613" d="M29.6,23c0.5-0.7,0.2-0.8,0-1.2
				C29.2,22.5,29.2,22.8,29.6,23z"/>
			<path fill-rule="evenodd" clip-rule="evenodd" fill="#528645" d="M29.7,25.2c-0.7-0.6-0.1-0.9-0.2-1.2
				C30,24.2,29.6,24.9,29.7,25.2"/>
			<path fill="none" stroke="#158F40" stroke-width="9.000000e-002" stroke-miterlimit="2.613" d="M29.7,25.2
				c-0.7-0.6-0.1-0.9-0.2-1.2C30,24.2,29.6,24.9,29.7,25.2z"/>
			<path fill-rule="evenodd" clip-rule="evenodd" fill="#528645" d="M30.3,25.6c-0.4-0.5-0.2-0.6-0.1-1
				C30.6,25.1,30.6,25.4,30.3,25.6"/>
			<path fill="none" stroke="#158F40" stroke-width="9.000000e-002" stroke-miterlimit="2.613" d="M30.3,25.6
				c-0.4-0.5-0.2-0.6-0.1-1C30.6,25.1,30.6,25.4,30.3,25.6z"/>
			<path fill-rule="evenodd" clip-rule="evenodd" fill="#528645" d="M30,25.4c0.2-0.5,0.1-0.7,0-1.1C29.7,24.8,29.8,25.1,30,25.4"/>
			<path fill="none" stroke="#158F40" stroke-width="9.000000e-002" stroke-miterlimit="2.613" d="M30,25.4c0.2-0.5,0.1-0.7,0-1.1
				C29.7,24.8,29.8,25.1,30,25.4z"/>
			<path fill-rule="evenodd" clip-rule="evenodd" fill="#528645" d="M30.2,23.4c-0.7-0.6-0.1-0.9-0.2-1.2
				C30.5,22.5,30.1,23.2,30.2,23.4"/>
			<path fill="none" stroke="#158F40" stroke-width="9.000000e-002" stroke-miterlimit="2.613" d="M30.2,23.4
				c-0.7-0.6-0.1-0.9-0.2-1.2C30.5,22.5,30.1,23.2,30.2,23.4z"/>
			<path fill-rule="evenodd" clip-rule="evenodd" fill="#528645" d="M31.7,23.1c-0.9-0.3-0.4-0.8-0.6-1.1
				C31.7,22.1,31.5,22.9,31.7,23.1"/>
			<path fill="none" stroke="#158F40" stroke-width="9.000000e-002" stroke-miterlimit="2.613" d="M31.7,23.1
				c-0.9-0.3-0.4-0.8-0.6-1.1C31.7,22.1,31.5,22.9,31.7,23.1z"/>
			<path fill-rule="evenodd" clip-rule="evenodd" fill="#528645" d="M31.1,25.1c0.2-0.6,0.2-0.9,0-1.3
				C30.8,24.4,30.9,24.9,31.1,25.1"/>
			<path fill="none" stroke="#158F40" stroke-width="9.000000e-002" stroke-miterlimit="2.613" d="M31.1,25.1c0.2-0.6,0.2-0.9,0-1.3
				C30.8,24.4,30.9,24.9,31.1,25.1z"/>
			<path fill-rule="evenodd" clip-rule="evenodd" fill="#528645" d="M32.3,23.8c0.7-0.6,0-0.9,0-1.5C32.1,23,32.3,23.6,32.3,23.8"/>
			<path fill="none" stroke="#158F40" stroke-width="9.000000e-002" stroke-miterlimit="2.613" d="M32.3,23.8c0.7-0.6,0-0.9,0-1.5
				C32.1,23,32.3,23.6,32.3,23.8z"/>
			<path fill-rule="evenodd" clip-rule="evenodd" fill="#528645" d="M31.6,24.8c0.7-0.8-0.2-1.1-0.1-1.5
				C31.1,23.8,31.6,24.5,31.6,24.8"/>
			<path fill="none" stroke="#158F40" stroke-width="9.000000e-002" stroke-miterlimit="2.613" d="M31.6,24.8
				c0.7-0.8-0.2-1.1-0.1-1.5C31.1,23.8,31.6,24.5,31.6,24.8z"/>
			<path fill-rule="evenodd" clip-rule="evenodd" fill="#528645" d="M34.1,23.5c-0.7,0.6-0.9,0.4-1.5,0.4
				C33.2,23.3,33.6,23.3,34.1,23.5"/>
			<path fill="none" stroke="#158F40" stroke-width="9.000000e-002" stroke-miterlimit="2.613" d="M34.1,23.5
				c-0.7,0.6-0.9,0.4-1.5,0.4C33.2,23.3,33.6,23.3,34.1,23.5z"/>
			<path fill-rule="evenodd" clip-rule="evenodd" fill="#528645" d="M32.1,24.5c0.7-0.5,1-0.3,1.6-0.2
				C32.9,24.7,32.5,24.7,32.1,24.5"/>
			<path fill-rule="evenodd" clip-rule="evenodd" fill="#528645" d="M32.1,24.3c0.1-0.6,0-0.9-0.3-1.3C31.6,23.7,31.9,24,32.1,24.3"
				/>
			<path fill="none" stroke="#158F40" stroke-width="9.000000e-002" stroke-miterlimit="2.613" d="M32.1,24.3c0.1-0.6,0-0.9-0.3-1.3
				C31.6,23.7,31.9,24,32.1,24.3z"/>
			<path fill-rule="evenodd" clip-rule="evenodd" fill="#528645" d="M30.7,24.4c-0.2-0.6-0.1-0.6,0.2-1C31,24,30.9,24.3,30.7,24.4"
				/>
			<path fill="none" stroke="#158F40" stroke-width="9.000000e-002" stroke-miterlimit="2.613" d="M30.7,24.4
				c-0.2-0.6-0.1-0.6,0.2-1C31,24,30.9,24.3,30.7,24.4z"/>
			<path fill-rule="evenodd" clip-rule="evenodd" fill="#528645" d="M30.3,23.8c0.3-0.4,0.4-0.6,0.3-1
				C30.2,23.2,30.2,23.5,30.3,23.8"/>
			<path fill="none" stroke="#158F40" stroke-width="9.000000e-002" stroke-miterlimit="2.613" d="M30.3,23.8c0.3-0.4,0.4-0.6,0.3-1
				C30.2,23.2,30.2,23.5,30.3,23.8z"/>
			<path fill-rule="evenodd" clip-rule="evenodd" fill="#528645" d="M29.9,23.5c-0.4-0.3-0.7-0.3-1-0.2
				C29.3,23.7,29.7,23.6,29.9,23.5"/>
			<path fill="none" stroke="#158F40" stroke-width="9.000000e-002" stroke-miterlimit="2.613" d="M29.9,23.5
				c-0.4-0.3-0.7-0.3-1-0.2C29.3,23.7,29.7,23.6,29.9,23.5z"/>
			<path fill-rule="evenodd" clip-rule="evenodd" fill="#528645" d="M30.4,24.4c-0.4-0.3-0.7-0.3-1-0.2
				C29.8,24.6,30.1,24.5,30.4,24.4"/>
			<path fill="none" stroke="#158F40" stroke-width="9.000000e-002" stroke-miterlimit="2.613" d="M30.4,24.4
				c-0.4-0.3-0.7-0.3-1-0.2C29.8,24.6,30.1,24.5,30.4,24.4z"/>
			<path fill-rule="evenodd" clip-rule="evenodd" fill="#528645" d="M30.3,24c-0.4-0.3-0.7-0.3-1-0.2C29.7,24.2,30.1,24.1,30.3,24"
				/>
			<path fill="none" stroke="#158F40" stroke-width="9.000000e-002" stroke-miterlimit="2.613" d="M30.3,24c-0.4-0.3-0.7-0.3-1-0.2
				C29.7,24.2,30.1,24.1,30.3,24z"/>
			<path fill-rule="evenodd" clip-rule="evenodd" fill="#528645" d="M31.1,25.3c0.8,0.5,1-0.1,1.4-0.1C32,24.8,31.4,25.3,31.1,25.3"
				/>
			<path fill="none" stroke="#158F40" stroke-width="9.000000e-002" stroke-miterlimit="2.613" d="M31.1,25.3c0.8,0.5,1-0.1,1.4-0.1
				C32,24.8,31.4,25.3,31.1,25.3z"/>
			<path fill-rule="evenodd" clip-rule="evenodd" fill="#528645" d="M31.7,24.8c0.7-0.4,0.8-0.2,1.3-0.1
				C32.4,25.1,32,25.1,31.7,24.8"/>
			<path fill="none" stroke="#158F40" stroke-width="9.000000e-002" stroke-miterlimit="2.613" d="M31.7,24.8
				c0.7-0.4,0.8-0.2,1.3-0.1C32.4,25.1,32,25.1,31.7,24.8z"/>
			<path fill-rule="evenodd" clip-rule="evenodd" fill="#528645" d="M29.4,23.1c-0.7,0.1-0.7-0.3-1-0.5C29,22.6,29.4,22.8,29.4,23.1
				"/>
			<path fill="none" stroke="#158F40" stroke-width="9.000000e-002" stroke-miterlimit="2.613" d="M29.4,23.1
				c-0.7,0.1-0.7-0.3-1-0.5C29,22.6,29.4,22.8,29.4,23.1z"/>
			<path fill-rule="evenodd" clip-rule="evenodd" fill="#80746E" d="M26.8,29.6c-0.1,0-0.2,0-0.3,0c-0.2,0-0.8-0.2-1-0.2
				c-0.4,0.1-1-0.3-1.2-0.1c-0.1,0.1-0.9,0.1-1.2,0.1c-0.6,0-1-0.1-1.5,0.1c-0.2,0.1-0.6-0.3-0.7-0.1c-0.2,0.2-0.5,0.3-0.9,0.3
				c0,0.1-0.1,0.3-0.1,0.4h6.8V29.6z"/>
			<path fill="none" stroke="#201F22" stroke-width="9.000000e-002" stroke-miterlimit="2.613" d="M26.8,29.6c-0.1,0-0.2,0-0.3,0
				c-0.2,0-0.8-0.2-1-0.2c-0.4,0.1-1-0.3-1.2-0.1c-0.1,0.1-0.9,0.1-1.2,0.1c-0.6,0-1-0.1-1.5,0.1c-0.2,0.1-0.6-0.3-0.7-0.1
				c-0.2,0.2-0.5,0.3-0.9,0.3c0,0.1-0.1,0.3-0.1,0.4h6.8V29.6z"/>
			<path fill-rule="evenodd" clip-rule="evenodd" fill="#201F22" d="M25.5,26.7c-0.3,0.1-0.6,1.1-0.7,1.4c-0.1,0.2-0.3,0.5-0.1,0.8
				c0.1,0.1,0.2,0.1,0.2,0.2c0.2,0,0.4,0.2,0.4,0.3c-0.1,0.2-0.4,0.1-0.6,0c0,0,0-0.1-0.1-0.1c0,0,0-0.1,0-0.1
				c-0.5-0.3-0.2-0.6-0.2-1.3c0,0.1-0.1,0.3-0.1,0.4c0,0.3-0.1,0.6,0,0.9c0.1,0.1,0.1,0.2,0.3,0.3c0.1,0,0.1,0.1,0.2,0.3
				c0,0,0.1,0.1,0,0.2c-0.1,0.1-0.1,0.1-0.5,0c0-0.1,0-0.1,0-0.2c-0.1,0-0.1,0-0.1-0.1c0-0.1-0.1-0.2-0.2-0.2c0-0.1-0.1-0.1-0.2-0.3
				c0-0.2,0-0.5,0.1-0.7c0.1-0.4,0.1-0.7,0.1-1c-0.2-0.2-0.2-0.4-0.2-0.7c-0.3,0.1-0.8-0.1-0.9-0.2c-0.2-0.1-0.1,0.7-0.6,1
				c-0.1,0.1-0.2,0.2-0.2,0.4c-0.2,0.2,0.1,0.9,0.3,1.1c0.1,0.1,0.2,0.3,0.3,0.4c0.1,0.1,0.4,0.2,0.3,0.4c-0.2,0.1-0.5,0.1-0.7,0
				c0-0.1-0.1-0.2,0-0.3c-0.1,0-0.3-0.1-0.3-0.1c-0.1-0.2-0.5-1.1-0.6-1.2c-0.1,0-0.1-0.2-0.1-0.3c0-0.1,0,0,0.2-0.4
				c-0.1,0.2-0.4,0.4-0.4,0.7c0,0.2,0.2,0.7,0.3,0.9c0.1,0.1,0.1,0.2,0.4,0.3c0.1,0.1,0.3,0.3,0.3,0.4c-0.1,0.1-0.5,0.1-0.7,0
				c0-0.1-0.1-0.2-0.1-0.3c-0.1,0,0-0.1-0.1-0.1c-0.1,0-0.2,0-0.3-0.1c-0.1-0.5-0.2-1.2-0.3-1.7c0-0.1,0-0.4,0.1-0.4
				c0.2-0.1,0.3-0.4,0.5-0.6c0.2-0.2,0.1-0.6-0.1-0.9c-0.1,0.1,0,0.2-0.1,0.2c-0.1,0.1-0.3-0.3-0.2-0.4c0-0.2,0-0.4,0-0.6
				c0.1-0.4,0.3-0.5,0.6-0.3c0.3-0.3,0.7-0.5,1.1-0.4c0.7-0.2,1.2,0,1.5,0.1c0.4,0.1,0.6,0.3,0.9,0.5c0.1,0.1,0.3,0,0.3-0.1
				c0-0.7-0.1-1.4-0.3-2.1c-0.3,0.2-0.5,0-0.8-0.2c-0.1,0-0.1-0.1,0-0.1c0.1,0,0.2-0.1,0.3-0.1c-0.2-0.1-0.1-0.2,0-0.2
				c0.2,0.1,0.5-0.1,0.7,0c0.1-0.2,0.4-0.2,0.6-0.2c0.2,0,0.4,0.1,0.5,0.3c0.1,0.1,0.4,0.2,0.4,0.2c0.1,0.1,0,0.2,0,0.3
				c0,0.1-0.1,0.1-0.2,0.2c-0.1,0-0.1,0-0.2,0c0,0.1-0.1,0.1-0.2,0.2c0.2,0.5,0.3,1.3,0.3,2.1c0,0.4,0,0.9-0.4,1.2
				C25.5,26.3,25.6,26.5,25.5,26.7"/>
			<path fill-rule="evenodd" clip-rule="evenodd" fill="#B46E3B" d="M25,22.3c-0.1,0.1-0.3,0.2-0.4,0.2c-0.2,0-0.2-0.1-0.3-0.2
				c-0.1,0-0.1-0.1,0-0.1C24.4,22.2,24.7,22,25,22.3c-0.2,0-0.2,0-0.4,0C24.7,22.3,24.8,22.3,25,22.3"/>
			<path fill-rule="evenodd" clip-rule="evenodd" fill="#935D48" d="M24.3,22.1C24.3,22,24.2,22,24.3,22.1c0.2,0,0.4-0.2,0.6,0
				c-0.1,0,0,0-0.1,0.1C24.8,22,24.4,22.1,24.3,22.1"/>
			<path fill-rule="evenodd" clip-rule="evenodd" fill="#B46E3B" d="M25,22c0.2-0.2,0.5-0.3,0.8-0.1c0.2,0.2,0.3,0.2,0.5,0.3
				c0,0.1,0.1,0.1,0.1,0.1c0,0,0,0.1,0,0.1c-0.1,0.1-0.2,0-0.4,0c0.1,0,0.3,0.1,0.4,0c0,0.1-0.1,0.2-0.4,0.1
				c-0.1,0.1-0.2,0.3-0.5,0.1c-0.1,0-0.2,0-0.3-0.1c0.1,0.1,0.3,0.2,0.4,0.3c0,0.1,0.4,1.2,0.3,1.8c0,0.2-0.1,0.7-0.2,1.1
				c-0.1,0.2-0.2,0.2-0.2,0.3c-0.2,0.2-0.1,0.4-0.2,0.5c-0.4,0.1-0.5,1.4-0.7,1.3c-0.2,0-0.3-0.7,0-0.8c0.8-0.5,0.5-1.6,0.5-1.5
				c-0.2,0.6-0.1,1.2-0.4,1.1c-0.3-0.1-0.5,0.8-0.4,0.9c0,0.2,0,0.3-0.1,0.4c0,0.1,0,0.3-0.1,0.7c0,0.1,0,0.2,0,0.3
				c0.1,0.1,0.2,0.2,0.3,0.3c0.2,0.1,0.2,0.3,0.2,0.3c0,0.1-0.2,0.1-0.4,0c0,0,0-0.1,0-0.2c-0.1,0-0.1-0.2-0.2-0.3
				c0-0.1-0.2-0.1-0.2-0.3c0-0.2,0.1-0.7,0.2-1c0.1-0.2,0.1-0.4,0.1-0.5c-0.1-0.2,0.1-0.2,0-0.3c-0.2-0.2-0.2-0.6,0.1-1
				c-0.1,0-0.1-0.2-0.1-0.2l0,0.3l-0.3,0.3c-0.3,0.1-0.8-0.1-1-0.4c-0.1-0.1-0.3-0.2-0.2-0.5c0,0-0.2,0-0.1,0c0.1,0.1,0,0.1,0,0.3
				c0,0.1,0.2,0.1,0.2,0.2l-0.1,0.5c0,0.3-0.2,0.6-0.5,0.9L21.8,28c0,0.3,0.4,0.8,0.6,1.1c0.1,0.1,0.1,0.2,0.2,0.3
				c0.1,0,0.2,0.1,0.3,0.3c-0.1,0-0.3,0.1-0.5,0c-0.1-0.1-0.1-0.2,0-0.3c-0.1,0-0.3-0.1-0.3-0.1c-0.2-0.4-0.4-0.8-0.6-1.3
				c-0.1-0.1-0.1-0.3,0.1-0.4c0.2-0.5,0.3-0.9,0.2-1.2c-0.2-0.1-0.4-0.4-0.4-0.8c-0.1-0.4,0-0.9,0.2-1.1c0.2-0.2,0.6-0.4,1-0.3
				c0.6-0.2,1.7,0.1,1.8,0.2c0.3,0,0.4,0.4,0.7,0.4c0.2,0,0.3-0.1,0.3-0.3c0-1.6-0.4-1.7-0.3-2c0-0.1,0.1-0.1,0.2-0.2
				C25,22.3,25,22.2,25,22.2C25,22.1,25,22,25,22"/>
			<path fill-rule="evenodd" clip-rule="evenodd" fill="#201F22" d="M26,22.2c-0.2-0.1-0.2-0.1-0.4-0.1c-0.1,0.1-0.1,0.1-0.2,0.2
				c0.1,0,0.1-0.1,0.1,0c0.1,0,0.2,0,0.2,0C25.9,22.2,25.9,22.3,26,22.2"/>
			<path fill-rule="evenodd" clip-rule="evenodd" fill="#B46E3B" d="M24.7,26.9c0,0.2,0,0.2-0.1,0.4c0.1,0.2,0.1,0.4-0.1,0.6
				c0.1,0.3-0.1,0.4,0,0.8c0.1,0.2,0.3,0.2,0.3,0.4c0.2,0,0.4,0.1,0.4,0.2c0,0,0-0.1-0.1,0c0.1,0,0.1,0.1,0.1,0.1
				c-0.1,0-0.2,0-0.3,0c-0.1,0-0.1,0-0.2-0.1c0,0,0-0.1,0-0.1c-0.2,0-0.3-0.1-0.3-0.4c0,0.1-0.1,0.1-0.1,0.2
				c-0.1-0.1-0.1-0.2-0.1-0.3c0.1-0.4,0.1-0.6,0.1-0.9C24.4,27.1,24.5,27,24.7,26.9"/>
			<path fill-rule="evenodd" clip-rule="evenodd" fill="#BF9262" d="M21,24.9c0,0.1,0,0.2-0.1,0.4c0.1,0,0.1,0,0.2-0.1
				c0,0.1-0.1,0.2-0.2,0.3c0,0,0.1,0,0.2-0.1v0.1c0,0.1-0.1,0.1-0.1,0.2c0,0-0.1,0.1-0.1,0.2c-0.1-0.1-0.1-0.3-0.1-0.6
				c-0.1-0.1,0-0.2,0.1-0.3c0,0-0.1,0-0.1,0.1c0-0.1,0.1-0.3,0.2-0.4c0.1-0.1,0.2-0.1,0.2,0.1c0,0.1,0,0.1-0.1,0.2
				C21,24.9,21,24.9,21,24.9"/>
			<path fill-rule="evenodd" clip-rule="evenodd" fill="#80725D" d="M21.7,26c0,0.3,0.1,0.6,0.1,0.9c0,0.3-0.1,0.6-0.3,0.9
				c0-0.1,0.1-0.1,0.2-0.1c0-0.2,0.1-0.3,0.2-0.5c0.1-0.2,0.1-0.4,0.1-0.5C21.8,26.5,21.8,26.3,21.7,26"/>
			<path fill-rule="evenodd" clip-rule="evenodd" fill="#B46E3B" d="M20.9,27.8c0,0.1,0,0.1,0,0.2c0.1,0.4,0.2,0.7,0.3,0.9
				c0.1,0.1,0.1,0.1,0.2,0.2c0,0,0.1,0.1,0.1,0.1c0.2,0.1,0.3,0.2,0.4,0.3c-0.2,0.1-0.3,0.1-0.5,0c0-0.1-0.1-0.2-0.1-0.3
				c0,0-0.1-0.1-0.1-0.1c-0.1,0-0.3-0.1-0.3-0.2c0-0.5-0.1-0.9-0.2-1.4c-0.1-0.2-0.1-0.3,0.1-0.5c0.2-0.1,0.3-0.3,0.4-0.4
				c0.1-0.1,0.2-0.3,0.2-0.5c0.1,0.1,0.2,0.3,0.2,0.4c0.1,0.2,0,0.4-0.1,0.7C21.3,27.5,21.1,27.7,20.9,27.8"/>
			<path fill-rule="evenodd" clip-rule="evenodd" fill="#80725D" d="M21.3,26.6c0,0.4-0.5,0.7-0.6,1.2c0-0.2,0-0.3,0.1-0.6
				C21,27,21.1,26.8,21.3,26.6"/>
			<path fill-rule="evenodd" clip-rule="evenodd" fill="#80725D" d="M20.8,26.9c-0.1,0.1-0.2,0.3-0.2,0.4c0-0.1,0-0.2,0-0.3
				C20.7,27,20.7,26.9,20.8,26.9"/>
			<path fill-rule="evenodd" clip-rule="evenodd" fill="#201F22" d="M28.2,20.4c0.9,0.1,1.4,0,1.5-0.4c0.1,0.2,1.8-0.3,1.5-0.7
				c0.6-0.2,0.8-0.6,0.9-1c0-0.1-0.3,0.1-0.4,0.1c0.3-0.3,0.6-1.1,0.1-1.6c0-0.9-0.3-1.5-0.8-1.6c0,0.1,0.1,1,0,0.6
				c-0.1-0.4-0.8-1.1-1.2-1.3c-0.3-0.5-1-0.7-1.7-0.6c-0.2-0.1-0.4,0-0.7,0.1c-0.3-0.1-0.9-0.2-1.2,0c-0.4-0.2-0.4-0.1-0.8,0
				c-0.6,0-0.7,0.1-1.2,0.6c-0.3,0-0.8,0.4-1,0.9c-0.3,0.3-0.7,0.6-0.7,1.2c-0.5,0.5-0.1,1.3-0.1,1.5c-0.1,1.3,0.3,1.1,0.7,1.3
				c0,0.7,1,0.4,1.4,0.8c0.5,0.6,0.9,0.5,2.6,0.1C27.7,20.3,28,20.4,28.2,20.4 M27.3,19.4c0.3-0.5,0.8-0.6,1.2-0.5
				c0.3-0.5,0.8-0.8,1.3-0.6c0-0.3,0.1-0.6,0.3-0.8c-0.5-0.4-0.7-0.8-0.8-1.2c-0.4,0-0.8-0.2-1.1-0.5c-0.3,0.1-0.5,0.2-0.8-0.1
				c-0.2,0.3-0.4,0.2-0.7,0c-0.3,0-0.7,0.2-0.9,0.2c-0.2,0.3-0.6,0.4-1,0.4c0,0.5,0,0.9-0.3,1.2c0.2,0.3,0.1,0.3,0.2,0.6
				c0.1,0.3,0.7,0.5,0.8,0.8C25.8,19,26,19,26.3,19C26.6,18.9,27,19.2,27.3,19.4"/>
			<path fill="none" stroke="#201F22" stroke-width="9.000000e-002" stroke-miterlimit="2.613" d="M28.2,20.4c0.9,0.1,1.4,0,1.5-0.4
				c0.1,0.2,1.8-0.3,1.5-0.7c0.6-0.2,0.8-0.6,0.9-1c0-0.1-0.3,0.1-0.4,0.1c0.3-0.3,0.6-1.1,0.1-1.6c0-0.9-0.3-1.5-0.8-1.6
				c0,0.1,0.1,1,0,0.6c-0.1-0.4-0.8-1.1-1.2-1.3c-0.3-0.5-1-0.7-1.7-0.6c-0.2-0.1-0.4,0-0.7,0.1c-0.3-0.1-0.9-0.2-1.2,0
				c-0.4-0.2-0.4-0.1-0.8,0c-0.6,0-0.7,0.1-1.2,0.6c-0.3,0-0.8,0.4-1,0.9c-0.3,0.3-0.7,0.6-0.7,1.2c-0.5,0.5-0.1,1.3-0.1,1.5
				c-0.1,1.3,0.3,1.1,0.7,1.3c0,0.7,1,0.4,1.4,0.8c0.5,0.6,0.9,0.5,2.6,0.1C27.7,20.3,28,20.4,28.2,20.4z M27.3,19.4
				c0.3-0.5,0.8-0.6,1.2-0.5c0.3-0.5,0.8-0.8,1.3-0.6c0-0.3,0.1-0.6,0.3-0.8c-0.5-0.4-0.7-0.8-0.8-1.2c-0.4,0-0.8-0.2-1.1-0.5
				c-0.3,0.1-0.5,0.2-0.8-0.1c-0.2,0.3-0.4,0.2-0.7,0c-0.3,0-0.7,0.2-0.9,0.2c-0.2,0.3-0.6,0.4-1,0.4c0,0.5,0,0.9-0.3,1.2
				c0.2,0.3,0.1,0.3,0.2,0.6c0.1,0.3,0.7,0.5,0.8,0.8C25.8,19,26,19,26.3,19C26.6,18.9,27,19.2,27.3,19.4z"/>
			<path fill-rule="evenodd" clip-rule="evenodd" fill="#158F40" d="M27.6,14.1c1-0.4,1.1,0.3,1.6,0.3
				C28.6,14.8,27.9,14.1,27.6,14.1"/>
			<path fill="none" stroke="#201F22" stroke-width="9.000000e-002" stroke-miterlimit="2.613" d="M27.6,14.1c1-0.4,1.1,0.3,1.6,0.3
				C28.6,14.8,27.9,14.1,27.6,14.1z"/>
			<path fill-rule="evenodd" clip-rule="evenodd" fill="#158F40" d="M28.5,13.9c1.1-0.1,1.1,0.6,1.5,0.8
				C29.4,14.9,28.9,14,28.5,13.9"/>
			<path fill="none" stroke="#201F22" stroke-width="9.000000e-002" stroke-miterlimit="2.613" d="M28.5,13.9
				c1.1-0.1,1.1,0.6,1.5,0.8C29.4,14.9,28.9,14,28.5,13.9z"/>
			<path fill-rule="evenodd" clip-rule="evenodd" fill="#158F40" d="M27.2,15.3c1,0.6,1.3-0.1,1.8-0.1
				C28.4,14.7,27.6,15.3,27.2,15.3"/>
			<path fill="none" stroke="#201F22" stroke-width="9.000000e-002" stroke-miterlimit="2.613" d="M27.2,15.3c1,0.6,1.3-0.1,1.8-0.1
				C28.4,14.7,27.6,15.3,27.2,15.3z"/>
			<path fill-rule="evenodd" clip-rule="evenodd" fill="#158F40" d="M28.5,15.5c0.9,0.8,1.3,0.2,1.8,0.3
				C29.8,15.2,28.9,15.6,28.5,15.5"/>
			<path fill="none" stroke="#201F22" stroke-width="9.000000e-002" stroke-miterlimit="2.613" d="M28.5,15.5
				c0.9,0.8,1.3,0.2,1.8,0.3C29.8,15.2,28.9,15.6,28.5,15.5z"/>
			<path fill-rule="evenodd" clip-rule="evenodd" fill="#158F40" d="M27.1,14.6c1,0.7,1.2,0.3,2,0.2C28.3,14.4,27.8,14.3,27.1,14.6"
				/>
			<path fill="none" stroke="#201F22" stroke-width="9.000000e-002" stroke-miterlimit="2.613" d="M27.1,14.6c1,0.7,1.2,0.3,2,0.2
				C28.3,14.4,27.8,14.3,27.1,14.6z"/>
			<path fill-rule="evenodd" clip-rule="evenodd" fill="#158F40" d="M28.7,14.6c0.7,1,0.7,0.6,1.5,0.7
				C29.6,14.7,29.4,14.6,28.7,14.6"/>
			<path fill="none" stroke="#201F22" stroke-width="9.000000e-002" stroke-miterlimit="2.613" d="M28.7,14.6c0.7,1,0.7,0.6,1.5,0.7
				C29.6,14.7,29.4,14.6,28.7,14.6z"/>
			<path fill-rule="evenodd" clip-rule="evenodd" fill="#158F40" d="M29.9,14.5c1.4,0.5,0.9,1.2,1.3,1.6
				C30.2,15.9,30.2,14.8,29.9,14.5"/>
			<path fill="none" stroke="#201F22" stroke-width="9.000000e-002" stroke-miterlimit="2.613" d="M29.9,14.5
				c1.4,0.5,0.9,1.2,1.3,1.6C30.2,15.9,30.2,14.8,29.9,14.5z"/>
			<path fill-rule="evenodd" clip-rule="evenodd" fill="#158F40" d="M30,15.6c0,0.8,0.6,0.9,1.3,1.3C31.1,16.3,30.8,16,30,15.6"/>
			<path fill="none" stroke="#201F22" stroke-width="9.000000e-002" stroke-miterlimit="2.613" d="M30,15.6c0,0.8,0.6,0.9,1.3,1.3
				C31.1,16.3,30.8,16,30,15.6z"/>
			<path fill-rule="evenodd" clip-rule="evenodd" fill="#158F40" d="M31.3,15.3c0.7,1.3-0.2,1.5-0.2,2.1
				C30.6,16.6,31.4,15.8,31.3,15.3"/>
			<path fill="none" stroke="#201F22" stroke-width="9.000000e-002" stroke-miterlimit="2.613" d="M31.3,15.3
				c0.7,1.3-0.2,1.5-0.2,2.1C30.6,16.6,31.4,15.8,31.3,15.3z"/>
			<path fill-rule="evenodd" clip-rule="evenodd" fill="#158F40" d="M29.7,16.4c0.4,1.1,0.6,0.7,1.2,1.1
				C30.5,16.7,30.4,16.6,29.7,16.4"/>
			<path fill="none" stroke="#201F22" stroke-width="9.000000e-002" stroke-miterlimit="2.613" d="M29.7,16.4
				c0.4,1.1,0.6,0.7,1.2,1.1C30.5,16.7,30.4,16.6,29.7,16.4z"/>
			<path fill-rule="evenodd" clip-rule="evenodd" fill="#158F40" d="M31.3,18.9c-0.6-1.4,0.5-1.4,0.6-2
				C32.3,17.7,31.3,18.4,31.3,18.9"/>
			<path fill="none" stroke="#201F22" stroke-width="9.000000e-002" stroke-miterlimit="2.613" d="M31.3,18.9
				c-0.6-1.4,0.5-1.4,0.6-2C32.3,17.7,31.3,18.4,31.3,18.9z"/>
			<path fill-rule="evenodd" clip-rule="evenodd" fill="#158F40" d="M30.2,19.1c1.1-0.9,0.1-1.3,0.3-1.7
				C29.7,17.9,30.4,18.8,30.2,19.1"/>
			<path fill="none" stroke="#201F22" stroke-width="9.000000e-002" stroke-miterlimit="2.613" d="M30.2,19.1
				c1.1-0.9,0.1-1.3,0.3-1.7C29.7,17.9,30.4,18.8,30.2,19.1z"/>
			<path fill-rule="evenodd" clip-rule="evenodd" fill="#158F40" d="M31.1,17.1c-0.7,0.9-0.3,0.9-0.2,1.6
				C31.3,18,31.3,17.8,31.1,17.1"/>
			<path fill="none" stroke="#201F22" stroke-width="9.000000e-002" stroke-miterlimit="2.613" d="M31.1,17.1
				c-0.7,0.9-0.3,0.9-0.2,1.6C31.3,18,31.3,17.8,31.1,17.1z"/>
			<path fill-rule="evenodd" clip-rule="evenodd" fill="#158F40" d="M30.3,19.4c0.5-1.2,1.3-0.7,1.7-1.1
				C31.8,19.2,30.6,19.1,30.3,19.4"/>
			<path fill="none" stroke="#201F22" stroke-width="9.000000e-002" stroke-miterlimit="2.613" d="M30.3,19.4
				c0.5-1.2,1.3-0.7,1.7-1.1C31.8,19.2,30.6,19.1,30.3,19.4z"/>
			<path fill-rule="evenodd" clip-rule="evenodd" fill="#158F40" d="M29.5,19.4c0.5-0.8,0.7-0.6,1.3-0.6
				C30.3,19.4,29.9,19.6,29.5,19.4"/>
			<path fill="none" stroke="#201F22" stroke-width="9.000000e-002" stroke-miterlimit="2.613" d="M29.5,19.4
				c0.5-0.8,0.7-0.6,1.3-0.6C30.3,19.4,29.9,19.6,29.5,19.4z"/>
			<path fill-rule="evenodd" clip-rule="evenodd" fill="#158F40" d="M29.1,19.6c1-0.9,1.5-0.1,2-0.2C30.5,20,29.5,19.5,29.1,19.6"/>
			<path fill="none" stroke="#201F22" stroke-width="9.000000e-002" stroke-miterlimit="2.613" d="M29.1,19.6c1-0.9,1.5-0.1,2-0.2
				C30.5,20,29.5,19.5,29.1,19.6z"/>
			<path fill-rule="evenodd" clip-rule="evenodd" fill="#158F40" d="M28.7,19.3c0.4-1.4,1.3-0.7,1.7-1.1C30.3,19.3,29,19,28.7,19.3"
				/>
			<path fill="none" stroke="#201F22" stroke-width="9.000000e-002" stroke-miterlimit="2.613" d="M28.7,19.3
				c0.4-1.4,1.3-0.7,1.7-1.1C30.3,19.3,29,19,28.7,19.3z"/>
			<path fill-rule="evenodd" clip-rule="evenodd" fill="#158F40" d="M28.3,19.7c0.7-0.6,0.9-0.4,1.4-0.3C29.1,20,28.7,20,28.3,19.7"
				/>
			<path fill="none" stroke="#201F22" stroke-width="9.000000e-002" stroke-miterlimit="2.613" d="M28.3,19.7
				c0.7-0.6,0.9-0.4,1.4-0.3C29.1,20,28.7,20,28.3,19.7z"/>
			<path fill-rule="evenodd" clip-rule="evenodd" fill="#158F40" d="M27.3,19.9c0.4-1.4,1.3-0.7,1.7-1.1
				C28.9,19.9,27.6,19.6,27.3,19.9"/>
			<path fill="none" stroke="#201F22" stroke-width="9.000000e-002" stroke-miterlimit="2.613" d="M27.3,19.9
				c0.4-1.4,1.3-0.7,1.7-1.1C28.9,19.9,27.6,19.6,27.3,19.9z"/>
			<path fill-rule="evenodd" clip-rule="evenodd" fill="#158F40" d="M27.5,20c1.1-0.8,1.5,0.1,2,0.1C28.9,20.7,28,20,27.5,20"/>
			<path fill="none" stroke="#201F22" stroke-width="9.000000e-002" stroke-miterlimit="2.613" d="M27.5,20c1.1-0.8,1.5,0.1,2,0.1
				C28.9,20.7,28,20,27.5,20z"/>
			<path fill-rule="evenodd" clip-rule="evenodd" fill="#158F40" d="M26.7,14.2c-1-0.4-1.1,0.3-1.6,0.3
				C25.8,14.9,26.4,14.3,26.7,14.2"/>
			<path fill="none" stroke="#201F22" stroke-width="9.000000e-002" stroke-miterlimit="2.613" d="M26.7,14.2
				c-1-0.4-1.1,0.3-1.6,0.3C25.8,14.9,26.4,14.3,26.7,14.2z"/>
			<path fill-rule="evenodd" clip-rule="evenodd" fill="#158F40" d="M26,14c-1.1-0.1-1.1,0.6-1.5,0.8C25.1,15,25.6,14.2,26,14"/>
			<path fill="none" stroke="#201F22" stroke-width="9.000000e-002" stroke-miterlimit="2.613" d="M26,14c-1.1-0.1-1.1,0.6-1.5,0.8
				C25.1,15,25.6,14.2,26,14z"/>
			<path fill-rule="evenodd" clip-rule="evenodd" fill="#158F40" d="M27.3,15.4c-1,0.6-1.3-0.1-1.8-0.1
				C26.1,14.8,26.9,15.4,27.3,15.4"/>
			<path fill="none" stroke="#201F22" stroke-width="9.000000e-002" stroke-miterlimit="2.613" d="M27.3,15.4
				c-1,0.6-1.3-0.1-1.8-0.1C26.1,14.8,26.9,15.4,27.3,15.4z"/>
			<path fill-rule="evenodd" clip-rule="evenodd" fill="#158F40" d="M26,15.6c-0.9,0.8-1.3,0.2-1.8,0.3C24.7,15.3,25.6,15.7,26,15.6
				"/>
			<path fill="none" stroke="#201F22" stroke-width="9.000000e-002" stroke-miterlimit="2.613" d="M26,15.6
				c-0.9,0.8-1.3,0.2-1.8,0.3C24.7,15.3,25.6,15.7,26,15.6z"/>
			<path fill-rule="evenodd" clip-rule="evenodd" fill="#158F40" d="M27.4,14.7c-1,0.7-1.2,0.3-2,0.2C26.2,14.5,26.7,14.5,27.4,14.7
				"/>
			<path fill="none" stroke="#201F22" stroke-width="9.000000e-002" stroke-miterlimit="2.613" d="M27.4,14.7c-1,0.7-1.2,0.3-2,0.2
				C26.2,14.5,26.7,14.5,27.4,14.7z"/>
			<path fill-rule="evenodd" clip-rule="evenodd" fill="#158F40" d="M25.8,14.7c-0.7,1-0.7,0.6-1.5,0.7
				C24.9,14.8,25.1,14.7,25.8,14.7"/>
			<path fill="none" stroke="#201F22" stroke-width="9.000000e-002" stroke-miterlimit="2.613" d="M25.8,14.7
				c-0.7,1-0.7,0.6-1.5,0.7C24.9,14.8,25.1,14.7,25.8,14.7z"/>
			<path fill-rule="evenodd" clip-rule="evenodd" fill="#158F40" d="M24.6,14.6c-1.4,0.5-0.9,1.2-1.3,1.6
				C24.3,16,24.3,14.9,24.6,14.6"/>
			<path fill="none" stroke="#201F22" stroke-width="9.000000e-002" stroke-miterlimit="2.613" d="M24.6,14.6
				c-1.4,0.5-0.9,1.2-1.3,1.6C24.3,16,24.3,14.9,24.6,14.6z"/>
			<path fill-rule="evenodd" clip-rule="evenodd" fill="#158F40" d="M24.5,15.7c0,0.8-0.6,0.9-1.3,1.3
				C23.4,16.5,23.8,16.1,24.5,15.7"/>
			<path fill="none" stroke="#201F22" stroke-width="9.000000e-002" stroke-miterlimit="2.613" d="M24.5,15.7c0,0.8-0.6,0.9-1.3,1.3
				C23.4,16.5,23.8,16.1,24.5,15.7z"/>
			<path fill-rule="evenodd" clip-rule="evenodd" fill="#158F40" d="M23.3,15.6c-1,1.1-0.2,1.5-0.4,2C23.7,17,23.2,16,23.3,15.6"/>
			<path fill="none" stroke="#201F22" stroke-width="9.000000e-002" stroke-miterlimit="2.613" d="M23.3,15.6c-1,1.1-0.2,1.5-0.4,2
				C23.7,17,23.2,16,23.3,15.6z"/>
			<path fill-rule="evenodd" clip-rule="evenodd" fill="#158F40" d="M24.7,16.4c-0.2,1.2-0.4,0.8-1.1,1.3
				C23.9,16.9,24,16.7,24.7,16.4"/>
			<path fill="none" stroke="#201F22" stroke-width="9.000000e-002" stroke-miterlimit="2.613" d="M24.7,16.4
				c-0.2,1.2-0.4,0.8-1.1,1.3C23.9,16.9,24,16.7,24.7,16.4z"/>
			<path fill-rule="evenodd" clip-rule="evenodd" fill="#158F40" d="M23.2,18.8c0.6-1.4-0.5-1.4-0.6-2
				C22.1,17.6,23.1,18.3,23.2,18.8"/>
			<path fill="none" stroke="#201F22" stroke-width="9.000000e-002" stroke-miterlimit="2.613" d="M23.2,18.8c0.6-1.4-0.5-1.4-0.6-2
				C22.1,17.6,23.1,18.3,23.2,18.8z"/>
			<path fill-rule="evenodd" clip-rule="evenodd" fill="#158F40" d="M24.1,19.2c-0.8-1.1,0.2-1.3,0.1-1.8
				C24.9,18.1,24.1,18.8,24.1,19.2"/>
			<path fill="none" stroke="#201F22" stroke-width="9.000000e-002" stroke-miterlimit="2.613" d="M24.1,19.2
				c-0.8-1.1,0.2-1.3,0.1-1.8C24.9,18.1,24.1,18.8,24.1,19.2z"/>
			<path fill-rule="evenodd" clip-rule="evenodd" fill="#158F40" d="M23.4,17.2c0.7,0.9,0.3,0.9,0.2,1.6
				C23.2,18.1,23.2,17.9,23.4,17.2"/>
			<path fill="none" stroke="#201F22" stroke-width="9.000000e-002" stroke-miterlimit="2.613" d="M23.4,17.2
				c0.7,0.9,0.3,0.9,0.2,1.6C23.2,18.1,23.2,17.9,23.4,17.2z"/>
			<path fill-rule="evenodd" clip-rule="evenodd" fill="#158F40" d="M24.2,19.6c-0.4-1.3-1.2-0.8-1.6-1.2
				C22.7,19.2,23.9,19.3,24.2,19.6"/>
			<path fill="none" stroke="#201F22" stroke-width="9.000000e-002" stroke-miterlimit="2.613" d="M24.2,19.6
				c-0.4-1.3-1.2-0.8-1.6-1.2C22.7,19.2,23.9,19.3,24.2,19.6z"/>
			<path fill-rule="evenodd" clip-rule="evenodd" fill="#158F40" d="M25,19.5c-0.5-0.8-0.7-0.6-1.3-0.6C24.2,19.5,24.6,19.7,25,19.5
				"/>
			<path fill="none" stroke="#201F22" stroke-width="9.000000e-002" stroke-miterlimit="2.613" d="M25,19.5
				c-0.5-0.8-0.7-0.6-1.3-0.6C24.2,19.5,24.6,19.7,25,19.5z"/>
			<path fill-rule="evenodd" clip-rule="evenodd" fill="#158F40" d="M25.4,19.7c-1-0.9-1.5-0.1-2-0.2C24,20.2,25,19.6,25.4,19.7"/>
			<path fill="none" stroke="#201F22" stroke-width="9.000000e-002" stroke-miterlimit="2.613" d="M25.4,19.7c-1-0.9-1.5-0.1-2-0.2
				C24,20.2,25,19.6,25.4,19.7z"/>
			<path fill-rule="evenodd" clip-rule="evenodd" fill="#158F40" d="M25.2,19.8c0.5-1.2-0.5-1.2-0.6-1.7
				C24.1,18.8,25.2,19.4,25.2,19.8"/>
			<path fill="none" stroke="#201F22" stroke-width="9.000000e-002" stroke-miterlimit="2.613" d="M25.2,19.8
				c0.5-1.2-0.5-1.2-0.6-1.7C24.1,18.8,25.2,19.4,25.2,19.8z"/>
			<path fill-rule="evenodd" clip-rule="evenodd" fill="#158F40" d="M26.2,19.9c-0.7-0.6-0.8-0.4-1.4-0.3
				C25.4,20.1,25.8,20.1,26.2,19.9"/>
			<path fill="none" stroke="#201F22" stroke-width="9.000000e-002" stroke-miterlimit="2.613" d="M26.2,19.9
				c-0.7-0.6-0.8-0.4-1.4-0.3C25.4,20.1,25.8,20.1,26.2,19.9z"/>
			<path fill-rule="evenodd" clip-rule="evenodd" fill="#158F40" d="M27.2,20c-0.4-1.4-1.3-0.7-1.7-1.1C25.6,20,26.9,19.7,27.2,20"
				/>
			<path fill="none" stroke="#201F22" stroke-width="9.000000e-002" stroke-miterlimit="2.613" d="M27.2,20
				c-0.4-1.4-1.3-0.7-1.7-1.1C25.6,20,26.9,19.7,27.2,20z"/>
			<path fill-rule="evenodd" clip-rule="evenodd" fill="#158F40" d="M27,20.1c-1.1-0.8-1.5,0.1-2,0C25.6,20.8,26.6,20.1,27,20.1"/>
			<path fill="none" stroke="#201F22" stroke-width="9.000000e-002" stroke-miterlimit="2.613" d="M27,20.1c-1.1-0.8-1.5,0.1-2,0
				C25.6,20.8,26.6,20.1,27,20.1z"/>
			<path fill-rule="evenodd" clip-rule="evenodd" fill="#158F40" d="M27.6,14.2c-0.9,0.7-0.9,0.3-1.6,0.2
				C26.7,14,26.9,13.9,27.6,14.2"/>
			<path fill="none" stroke="#201F22" stroke-width="9.000000e-002" stroke-miterlimit="2.613" d="M27.6,14.2
				c-0.9,0.7-0.9,0.3-1.6,0.2C26.7,14,26.9,13.9,27.6,14.2z"/>
			<path fill-rule="evenodd" clip-rule="evenodd" fill="#201F22" d="M13.7,15.8l-1.5-1.4l0.6-0.6c0.1-0.2,0.3-0.3,0.4-0.3
				c0.1,0,0.2-0.1,0.3,0c0.1,0,0.2,0.1,0.3,0.1c0.1,0.1,0.2,0.2,0.2,0.4c0,0.1,0,0.3-0.1,0.4c0.1,0,0.2,0,0.3,0c0.1,0,0.2,0,0.4,0
				l0.5,0.1l-0.3,0.4l-0.5-0.1c-0.2,0-0.3,0-0.4,0c-0.1,0-0.1,0-0.1,0c0,0-0.1,0.1-0.2,0.1L13.4,15l0.6,0.6L13.7,15.8z M13.1,14.7
				l0.2-0.2c0.1-0.1,0.2-0.2,0.2-0.3c0,0,0-0.1,0-0.1c0,0,0-0.1-0.1-0.1c-0.1,0-0.1-0.1-0.2-0.1c-0.1,0-0.1,0-0.2,0.1
				c0,0-0.1,0.1-0.2,0.2l-0.2,0.2L13.1,14.7z M15.1,14.3l-1.4-1.5l1.1-1l0.2,0.3l-0.8,0.7l0.3,0.3l0.7-0.7l0.2,0.2l-0.7,0.7l0.4,0.4
				L16,13l0.2,0.3L15.1,14.3z M16.6,13.1l-1.2-1.6l0.5-0.4c0.2-0.1,0.3-0.2,0.4-0.3c0.1,0,0.2-0.1,0.4,0c0.1,0,0.2,0.1,0.3,0.2
				c0.1,0.1,0.1,0.2,0.1,0.3c0,0.1,0,0.2,0,0.3c0,0.1-0.1,0.1-0.1,0.2c-0.1,0.1-0.2,0.2-0.3,0.3l-0.2,0.2l0.5,0.6L16.6,13.1z
				 M15.9,11.5l0.3,0.5l0.2-0.1c0.1-0.1,0.2-0.2,0.2-0.2c0,0,0-0.1,0-0.2c0-0.1,0-0.1-0.1-0.2c0-0.1-0.1-0.1-0.2-0.1
				c-0.1,0-0.1,0-0.2,0c0,0-0.1,0.1-0.2,0.2L15.9,11.5z M17.1,10.2l0.4-0.2l0.5,1c0.1,0.2,0.1,0.2,0.2,0.3c0.1,0.1,0.1,0.1,0.2,0.1
				c0.1,0,0.2,0,0.3-0.1c0.1-0.1,0.2-0.1,0.2-0.2c0-0.1,0-0.1,0-0.2c0-0.1-0.1-0.2-0.2-0.3l-0.5-1l0.4-0.2l0.5,0.9
				c0.1,0.2,0.2,0.4,0.2,0.5c0,0.1,0,0.2,0,0.3c0,0.1-0.1,0.2-0.1,0.3c-0.1,0.1-0.2,0.2-0.3,0.2c-0.2,0.1-0.3,0.1-0.4,0.2
				c-0.1,0-0.2,0-0.3,0c-0.1,0-0.2-0.1-0.2-0.1c-0.1-0.1-0.2-0.2-0.3-0.4L17.1,10.2z M19.1,9.1l0.7-0.3c0.1-0.1,0.3-0.1,0.3-0.1
				c0.1,0,0.2,0,0.2,0c0.1,0,0.1,0,0.2,0.1c0.1,0,0.1,0.1,0.1,0.2c0,0.1,0,0.2,0,0.3c0,0.1-0.1,0.2-0.1,0.2c0.1,0,0.2,0,0.3,0.1
				c0.1,0.1,0.2,0.1,0.2,0.2c0,0.1,0.1,0.2,0,0.3c0,0.1,0,0.2-0.1,0.3c0,0.1-0.1,0.1-0.2,0.2c-0.1,0-0.2,0.1-0.5,0.2L19.9,11
				L19.1,9.1z M19.6,9.3l0.2,0.4L20,9.6c0.1-0.1,0.2-0.1,0.3-0.1c0.1,0,0.1-0.1,0.1-0.1c0-0.1,0-0.1,0-0.2c0-0.1-0.1-0.1-0.1-0.1
				c0,0-0.1,0-0.2,0c0,0-0.1,0.1-0.3,0.1L19.6,9.3z M19.9,10l0.2,0.5l0.3-0.1c0.1-0.1,0.2-0.1,0.3-0.1c0.1,0,0.1-0.1,0.1-0.1
				c0-0.1,0-0.1,0-0.2c0-0.1-0.1-0.1-0.1-0.1c0,0-0.1,0-0.2,0c-0.1,0-0.2,0-0.3,0.1L19.9,10z M21.8,10.2l-0.6-1.9l0.4-0.1l0.5,1.6
				l1-0.3l0.1,0.3L21.8,10.2z M23.4,9.8l-0.5-2l0.4-0.1l0.5,2L23.4,9.8z M25.4,8.7l0.4,0.1c0,0.2-0.1,0.4-0.2,0.5
				c-0.1,0.1-0.3,0.2-0.5,0.2c-0.3,0-0.5,0-0.7-0.2c-0.2-0.2-0.3-0.4-0.4-0.7c0-0.3,0-0.6,0.1-0.8c0.1-0.2,0.4-0.3,0.6-0.4
				c0.2,0,0.5,0,0.6,0.1c0.1,0.1,0.2,0.2,0.3,0.3L25.3,8c0-0.1-0.1-0.2-0.2-0.2c-0.1-0.1-0.2-0.1-0.3-0.1c-0.1,0-0.3,0.1-0.3,0.2
				c-0.1,0.1-0.1,0.3-0.1,0.5c0,0.3,0.1,0.4,0.2,0.5c0.1,0.1,0.2,0.1,0.4,0.1c0.1,0,0.2-0.1,0.3-0.1C25.4,8.9,25.4,8.8,25.4,8.7
				 M28.1,9.3l-0.4,0l-0.2-0.5l-0.8,0l-0.2,0.5l-0.4,0l0.7-2.1l0.4,0L28.1,9.3z M27.3,8.5L27,7.8l-0.2,0.8L27.3,8.5z M29.4,7.4
				l0.7,0.1c0.2,0,0.3,0.1,0.4,0.1c0.1,0.1,0.2,0.1,0.3,0.2c0.1,0.1,0.1,0.2,0.1,0.3c0,0.1,0,0.3,0,0.5c0,0.2-0.1,0.3-0.1,0.4
				c-0.1,0.1-0.2,0.2-0.3,0.3c-0.1,0.1-0.2,0.1-0.3,0.1c-0.1,0-0.2,0-0.4,0l-0.8-0.1L29.4,7.4z M29.7,7.8l-0.2,1.3l0.3,0
				c0.1,0,0.2,0,0.2,0c0.1,0,0.1,0,0.2-0.1c0.1,0,0.1-0.1,0.1-0.2c0-0.1,0.1-0.2,0.1-0.4c0-0.2,0-0.3,0-0.4c0-0.1,0-0.2-0.1-0.2
				c0-0.1-0.1-0.1-0.2-0.1c-0.1,0-0.2,0-0.3-0.1L29.7,7.8z M31.1,9.7l0.5-2L33,8.1L33,8.4l-1.1-0.3l-0.1,0.4l1,0.2l-0.1,0.3l-1-0.2
				l-0.1,0.5l1.1,0.3l-0.1,0.3L31.1,9.7z M32.9,10.2l0.7-1.9L34,8.5L33.4,10l1,0.3l-0.1,0.3L32.9,10.2z M35.3,11.2l1-1.8l0.6,0.3
				c0.2,0.1,0.4,0.2,0.4,0.3c0.1,0.1,0.1,0.2,0.2,0.3c0,0.1,0,0.3-0.1,0.4c-0.1,0.1-0.1,0.2-0.2,0.2C37,11,36.9,11,36.8,11
				c-0.1,0-0.2,0-0.2,0c-0.1,0-0.2-0.1-0.4-0.2L36,10.7l-0.4,0.7L35.3,11.2z M36.4,9.9l-0.3,0.5l0.2,0.1c0.1,0.1,0.2,0.1,0.3,0.1
				c0.1,0,0.1,0,0.2,0c0,0,0.1-0.1,0.1-0.1c0-0.1,0-0.1,0-0.2c0-0.1,0-0.1-0.1-0.2c0,0-0.1-0.1-0.3-0.2L36.4,9.9z M36.9,12.1
				l1.2-1.6l1.2,0.9l-0.2,0.3L38.2,11L38,11.4l0.8,0.6l-0.2,0.3l-0.8-0.6l-0.3,0.4l0.9,0.7L38.1,13L36.9,12.1z M38.4,13.2l1.4-1.5
				l0.6,0.6c0.2,0.1,0.3,0.3,0.3,0.4c0,0.1,0.1,0.2,0,0.3c0,0.1-0.1,0.2-0.2,0.3c-0.1,0.1-0.2,0.2-0.4,0.2c-0.1,0-0.3,0-0.4-0.1
				c0,0.1,0,0.2,0,0.3c0,0.1,0,0.2-0.1,0.4l-0.1,0.5l-0.4-0.3l0.1-0.5c0-0.2,0-0.3,0-0.4c0-0.1,0-0.1,0-0.1c0,0-0.1-0.1-0.1-0.2
				l-0.1-0.1l-0.6,0.6L38.4,13.2z M39.5,12.7l0.2,0.2c0.1,0.1,0.2,0.2,0.3,0.2c0,0,0.1,0,0.1,0c0,0,0.1,0,0.1-0.1
				c0,0,0.1-0.1,0.1-0.2c0-0.1,0-0.1-0.1-0.2c0,0-0.1-0.1-0.2-0.2l-0.2-0.2L39.5,12.7z M41.4,13.3l0.3,0.3l-0.8,0.7
				c-0.1,0.1-0.2,0.2-0.2,0.2c0,0.1-0.1,0.1-0.1,0.2c0,0.1,0,0.2,0.1,0.3c0.1,0.1,0.2,0.1,0.2,0.1c0.1,0,0.1,0,0.2,0
				c0.1,0,0.1-0.1,0.3-0.2l0.8-0.7l0.3,0.3l-0.8,0.7c-0.2,0.2-0.3,0.3-0.4,0.3c-0.1,0-0.2,0.1-0.3,0.1c-0.1,0-0.2,0-0.3-0.1
				c-0.1,0-0.2-0.1-0.3-0.2c-0.1-0.1-0.2-0.3-0.2-0.4c0-0.1,0-0.2,0-0.3c0-0.1,0-0.2,0.1-0.2c0.1-0.1,0.2-0.2,0.4-0.4L41.4,13.3z"/>
			<polygon fill="#201F22" points="17.7,9.7 17.6,9.3 17.9,9.1 17.8,9.6 			"/>
		</g>
		<polygon fill="#201F22" points="42,13.7 42.4,13.5 42.6,13.8 42.1,13.8 		"/>
	</g>
	<g>
		<path fill="#FFFFFF" d="M64.6,25.1c0,0.5-0.1,1-0.3,1.4c-0.2,0.4-0.4,0.8-0.7,1.1c-0.3,0.3-0.7,0.5-1.2,0.7
			c-0.5,0.2-1,0.2-1.7,0.2h-1.2v3.8c0,0,0,0.1,0,0.1c0,0-0.1,0.1-0.1,0.1c-0.1,0-0.1,0-0.2,0c-0.1,0-0.2,0-0.3,0c-0.1,0-0.2,0-0.3,0
			c-0.1,0-0.2,0-0.2,0c-0.1,0-0.1,0-0.1-0.1c0,0,0-0.1,0-0.1v-9.8c0-0.2,0.1-0.4,0.2-0.5c0.1-0.1,0.2-0.1,0.4-0.1h2.3
			c0.2,0,0.4,0,0.7,0c0.2,0,0.5,0.1,0.7,0.1c0.3,0.1,0.6,0.2,0.9,0.4c0.3,0.2,0.5,0.4,0.8,0.6c0.2,0.3,0.4,0.5,0.5,0.9
			C64.5,24.4,64.6,24.7,64.6,25.1 M63.1,25.2c0-0.4-0.1-0.8-0.2-1.1c-0.2-0.3-0.4-0.5-0.6-0.6c-0.2-0.1-0.5-0.2-0.7-0.3
			c-0.3,0-0.5-0.1-0.7-0.1h-1.3v4.3h1.3c0.4,0,0.8-0.1,1.1-0.2c0.3-0.1,0.5-0.3,0.7-0.5c0.2-0.2,0.3-0.4,0.4-0.7
			C63,25.8,63.1,25.6,63.1,25.2"/>
		<path fill="#FFFFFF" d="M72.3,32c0,0.1,0,0.2,0,0.3c0,0.1,0,0.1-0.1,0.2c0,0-0.1,0.1-0.1,0.1c0,0-0.1,0-0.1,0h-5.1
			c-0.1,0-0.2,0-0.4-0.1c-0.1-0.1-0.2-0.2-0.2-0.4v-9.5c0-0.2,0.1-0.4,0.2-0.4c0.1-0.1,0.2-0.1,0.4-0.1h5c0,0,0.1,0,0.1,0
			c0,0,0.1,0.1,0.1,0.1c0,0,0,0.1,0.1,0.2c0,0.1,0,0.2,0,0.3c0,0.1,0,0.2,0,0.3c0,0.1,0,0.1-0.1,0.2c0,0-0.1,0.1-0.1,0.1
			c0,0-0.1,0-0.1,0h-4.1v3.3h3.6c0,0,0.1,0,0.1,0c0,0,0.1,0.1,0.1,0.1c0,0,0,0.1,0.1,0.2c0,0.1,0,0.2,0,0.3c0,0.1,0,0.2,0,0.3
			c0,0.1,0,0.1-0.1,0.2c0,0-0.1,0.1-0.1,0.1c0,0-0.1,0-0.1,0h-3.6v3.8H72c0,0,0.1,0,0.1,0c0,0,0.1,0.1,0.1,0.1c0,0,0,0.1,0.1,0.2
			C72.3,31.8,72.3,31.9,72.3,32"/>
		<path fill="#FFFFFF" d="M81.3,32.4c0,0,0,0.1,0,0.1c0,0-0.1,0.1-0.1,0.1c-0.1,0-0.1,0-0.2,0c-0.1,0-0.2,0-0.4,0
			c-0.1,0-0.3,0-0.3,0c-0.1,0-0.2,0-0.2-0.1c-0.1,0-0.1-0.1-0.1-0.1c0,0-0.1-0.1-0.1-0.2l-1-2.5c-0.1-0.3-0.2-0.5-0.4-0.8
			c-0.1-0.2-0.3-0.4-0.4-0.6c-0.2-0.2-0.4-0.3-0.6-0.4c-0.2-0.1-0.5-0.1-0.8-0.1h-0.9v4.5c0,0,0,0.1,0,0.1c0,0-0.1,0.1-0.1,0.1
			c-0.1,0-0.1,0-0.2,0c-0.1,0-0.2,0-0.3,0c-0.1,0-0.2,0-0.3,0c-0.1,0-0.2,0-0.2,0c-0.1,0-0.1,0-0.1-0.1c0,0,0-0.1,0-0.1v-9.8
			c0-0.2,0.1-0.4,0.2-0.4c0.1-0.1,0.2-0.1,0.4-0.1H77c0.3,0,0.5,0,0.7,0c0.2,0,0.3,0,0.5,0c0.4,0.1,0.8,0.2,1.1,0.3
			c0.3,0.2,0.6,0.3,0.8,0.6c0.2,0.2,0.4,0.5,0.5,0.8c0.1,0.3,0.2,0.6,0.2,1c0,0.4,0,0.7-0.1,1c-0.1,0.3-0.2,0.5-0.4,0.7
			c-0.2,0.2-0.4,0.4-0.6,0.6c-0.3,0.2-0.5,0.3-0.8,0.4c0.2,0.1,0.3,0.2,0.5,0.3c0.1,0.1,0.3,0.3,0.4,0.4c0.1,0.2,0.2,0.4,0.3,0.6
			c0.1,0.2,0.2,0.5,0.3,0.7l1,2.3c0.1,0.2,0.1,0.3,0.1,0.4C81.3,32.3,81.3,32.4,81.3,32.4 M79.2,25c0-0.4-0.1-0.8-0.3-1.1
			c-0.2-0.3-0.5-0.5-0.9-0.6c-0.1,0-0.3-0.1-0.5-0.1c-0.2,0-0.4,0-0.7,0h-1.2v3.6H77c0.4,0,0.7,0,1-0.1c0.3-0.1,0.5-0.2,0.7-0.4
			c0.2-0.2,0.3-0.4,0.4-0.6C79.2,25.5,79.2,25.2,79.2,25"/>
		<path fill="#FFFFFF" d="M91,28.7c0,0.6-0.1,1.2-0.3,1.7c-0.2,0.5-0.5,0.9-0.8,1.3c-0.3,0.3-0.8,0.6-1.3,0.8
			c-0.5,0.2-1.1,0.3-1.7,0.3c-0.6,0-1.1-0.1-1.6-0.3c-0.5-0.2-0.9-0.4-1.2-0.7c-0.3-0.3-0.6-0.7-0.8-1.2C83.1,30,83,29.5,83,28.8
			v-6.6c0,0,0-0.1,0-0.1c0,0,0.1-0.1,0.1-0.1c0.1,0,0.1,0,0.2,0c0.1,0,0.2,0,0.3,0c0.1,0,0.2,0,0.3,0c0.1,0,0.2,0,0.2,0
			c0.1,0,0.1,0,0.1,0.1c0,0,0,0.1,0,0.1v6.4c0,0.5,0.1,0.9,0.2,1.3c0.1,0.4,0.3,0.7,0.5,0.9c0.2,0.2,0.5,0.4,0.8,0.5
			c0.3,0.1,0.7,0.2,1.1,0.2c0.4,0,0.8-0.1,1.1-0.2c0.3-0.1,0.6-0.3,0.8-0.5c0.2-0.2,0.4-0.5,0.5-0.9c0.1-0.4,0.2-0.8,0.2-1.2v-6.5
			c0,0,0-0.1,0-0.1c0,0,0.1-0.1,0.1-0.1c0.1,0,0.1,0,0.2,0c0.1,0,0.2,0,0.3,0c0.1,0,0.2,0,0.3,0c0.1,0,0.2,0,0.2,0
			c0.1,0,0.1,0,0.1,0.1c0,0,0,0.1,0,0.1V28.7z M87.9,19.1C87.9,19,88,19,88,18.9c0.1,0,0.1-0.1,0.2-0.1c0.1,0,0.2,0,0.3,0
			c0.1,0,0.2,0,0.4,0c0.2,0,0.3,0,0.4,0c0.1,0,0.2,0.1,0.2,0.1c0,0,0.1,0.1,0,0.1c0,0,0,0.1-0.1,0.2l-1.9,1.7
			c-0.1,0.1-0.1,0.1-0.2,0.1c0,0-0.1,0.1-0.2,0.1c-0.1,0-0.1,0-0.2,0c-0.1,0-0.2,0-0.3,0c-0.1,0-0.2,0-0.3,0c-0.1,0-0.1,0-0.1-0.1
			c0,0,0-0.1,0-0.1c0,0,0-0.1,0.1-0.2L87.9,19.1z"/>
	</g>
	<rect x="105.5" y="17.5" fill="none" width="137.5" height="16.5"/>
	<text transform="matrix(1 0 0 1 105.5386 24.1499)"><tspan x="0" y="0" fill="#FFFFFF" font-family="'Calibri'" font-size="11">Presidencia</tspan><tspan x="0" y="12" fill="#FFFFFF" font-family="'Calibri'" font-size="11">del Consejo de Ministros</tspan></text>
	<rect x="251.2" y="13.4" fill="none" width="125.2" height="19.2"/>
	<text transform="matrix(1 0 0 1 251.2471 19.3208)"><tspan x="0" y="4" fill="#FFFFFF" font-family="'Calibri'" font-size="11">Centro Nacional de</tspan><tspan x="0" y="16" fill="#FFFFFF" font-family="'Calibri'" font-size="11">Planeamiento Estratégico</tspan></text>
</g>
</svg>
